<mxfile host="app.diagrams.net" modified="2022-06-05T16:55:37.551Z" agent="5.0 (Windows NT 10.0; Win64; x64) AppleWebKit/537.36 (KHTML, like Gecko) Chrome/102.0.5005.63 Safari/537.36" etag="BebnRAom7frA3OtaEIgg" version="18.0.3" type="github">
  <diagram id="jBZosiRlT1AQV_-I5hG2" name="Page-1">
    <mxGraphModel dx="1038" dy="481" grid="1" gridSize="10" guides="1" tooltips="1" connect="1" arrows="1" fold="1" page="1" pageScale="1" pageWidth="850" pageHeight="1100" math="0" shadow="0">
      <root>
        <mxCell id="0" />
        <mxCell id="1" parent="0" />
        <mxCell id="86YcsMJ1zAbwVgD-Ryo3-1" value="" style="verticalLabelPosition=bottom;sketch=0;aspect=fixed;html=1;verticalAlign=top;strokeColor=none;align=center;outlineConnect=0;shape=mxgraph.citrix.tablet_2;" vertex="1" parent="1">
          <mxGeometry x="160" y="40" width="209.78" height="220" as="geometry" />
        </mxCell>
        <mxCell id="86YcsMJ1zAbwVgD-Ryo3-3" value="" style="shape=image;imageAspect=0;aspect=fixed;verticalLabelPosition=bottom;verticalAlign=top;image=data:image/png,iVBORw0KGgoAAAANSUhEUgAAAqsAAAHKCAYAAAAkWwKTAAAAAXNSR0IB2cksfwAAAAlwSFlzAAALEwAACxMBAJqcGAAA9p5JREFUeJzsnQu4VWWd/9fUzH+mqTFvCKgo4gVJUBFR0zFtzLQ0tNIcDTPJDIooy6HUMoowMouclJBCIi9poYNpxoBpZISlkUqopZimjgOOeRl1HMvWn88767t7z2Kfw+Gcvfe7L9/P86xnn7PP2XuvvS7v+31/1ywzxhhjjDHGGGOMMcYYY4wxxhhjjDHGGGOMMcYYY4wxxhhjjDHGGGOMMcYYY4wxxhhjjDHGGGOMMcYYY4wxxhhjjDHGGGOMMcYYY4wxxhhjjDHGGGOMMcYYY4wxxhhjjDHGGGOMMcYYY4wxxhhjjDHGGGOMMcYYY4wxxjSQ2267LT/ssMPyAQMG5H/zN3+T//Vf/3X+V3/1V/krXvGK/JWvfGXY+JmN58vb+rcIW/wa3oNNP/O+f//3fx8+Z8mSJXnq72yMMcYYY5qEp59+Op86dWo+duzYfMiQIUGUbrnllvnf/u3fBpGJkORnRGVWCM+sJEB7K1Z72vQe/+///b8uonabbbbJd9lll7B/55xzTr5u3TqLWWOMMcaYduTJJ5/MZ86cme+11175FltsEUSkRKispOUtKwnUrAexWt42JlCriVptstjyc2zFRTzz+Hd/93f56NGj8wsuuCB/6qmnLGCNMcYYY1qNuXPnvuLEE08MgjQWftlGhGYsVqsJyawOglVWVYUa6LN7st5qH/h/Xrv11lvn06dPt3A1xhhjjGlWZs+enW+22WZBvGF9jEWdLJMSfdWEZSxY9VzWjUiN33djorX8OVlJ7CqOVWK1O1HdndhlHxRCoNdutdVW+fLlyy1ejTHGGGNSMWvWrPzVr351/prXvCb/h3/4hy7WyNgCKRGYFdbVahv/86pXvSqIXP6PWFUJvyyyyrLxPzvuuGNIipoyZUqwaK5evbqyrVq1Kr/zzjvzO+64I7/99tvzuXPnhm3UqFH5rrvumu+www5hf6uJYv3Mo0Rsb+JdewplQLgOHTrUwtUYY4wxpp5cc801+W677ZZvvvnmwZKoRChEWU9itTeWT95j2LBh+VlnnRXEZkqoQnDKKafkAwcOzF/72td2sQj3RazKWouw5/2OPPLIIKYTn05jjDHGmNYH8UiGfjVXeJx0VE3AZZGFVJZThBtiF6voFVdckZN41Qo88sgj+Zw5c0JlAESnjkVcQaC7LT4uOmZsCPx58+ZZtBpjjDHG9JalS5fmO++8cxBWuNtJkkJcbkrSkv4XYYqwGz58eCj9dN9996XWnDXl0UcfzSdOnBiOl0R5T6I13vhfWaYR8XvuuWf+0ksvWbgaY4wxxsTg8t52222rFtCXG/uII46oJE0hsCiiH8d58v/ErfIzbu7tttsuuNE7kaOOOiokmelYZVESmI6p4nLL4l6/H3fccRatxhhjjOlMcLuPHDkyuPYRoFkkmrJsw25PWP34v9e//vUbZOXHwhXrq+nKPffcEyzLWbQQ0O/VLNHaVEmBRgnJLhRjjDHGmEYxbdq0/HWve10QlIqXVNIQYlSZ793VFl3/FsFyus8++wThys/77rtvvnLlytR6sGV44okn8u23375LNy6OfbXQgXjBwIJgxIgR+XPPPWfhaowxxpj2ANc+YhLraVa4oRE9EkOqKRpn9HcXcyphi9i94YYbUmu+toC4YKzbWFDjRgTlmNZ44xzxmjVr1li0GmOMMaa1INGHLHUJTBWpzwqhmlWJR5UI1XNZVMsUix9lpMaPHx8sgqZ+ENs7aNCgSnmr+NzEpa9YVOjR4QHGGGOMaXoOOeSQiiiV0Km2ZYX4jP9H1tUsKoKPCEI03XXXXan1W0dC3VWaFWBtVQtXbZwbzqHOE488b9FqjDHGmKZh2bJlFTGDUFG8o8Rmd+1LJXxiy502stYXLFiQWqeZEsS2xmJVIRs6h6omQHIbCVujR4+2aDXGGGNMY7nqqqvygw8+ON9iiy26uOvjuNNqsY3l9qFyJyN2Bg8enC9cuDC1FjO9hIYMLCh0HhUKoHMabzw/btw4i1ZjjDHG1AdKSk2ePDl0NVLHpywqExV3jdqYWJX7n+x/3vPFF19MrbtMP6DTl5Kx4nhWLV50zrG2I24J5Uh7NRtjjDGmLVixYkW+6667Vlz7cWH4WIj01Ic+iwQtbmGy9s8888zU+srUARoOsJjJirCPcuWAeEFz4IEHWrAaY4wxZtOgpBTWTlz7WSQyZQnNsq7F4/V8d2IVCxuu/cMOOyy1jjINZI899ghWVMIC4ljWuLkDncT4n9mzZ1u0GmOMMaY6y5cvDwXdt9pqq0o9TblwFYealbpCacOdW7acsmGFnTBhQmq9ZJqA4cOHh2uKhU1cMSAOEeA6o/1tolvAGGOMMc3Egw8+mJ9wwgnB2pkVokHu/ayK67YnsZoVJacQItRQddyp6Q6qB7zylX9p5FBOvOIa4jqcOnWqRasxxhjTadD/fdSoURW3bBa59stiVGKV5+OM7jgpit95P5JqLFBNb5k/f34QpXGdVj3qOa4xumelvF+MMcYYU2cef/zxfK+99uo2nrQcOxi3MY2tXVnUBpX6qSTPuFuU6S9HHnlkiIvWtaYqAlxnJN+RoMXCyhUDjDHGmDbht7/9bXDrxxYrxZK+5jWv2UCsxuI0K4lZCVXEA7Gsf/7zn1NrG9OGPPPMM5WqAdrGjBkTHnleHoCRI0dasBpjjDGtyJw5c/KddtqpS3Z+bBWNs/fLYhVXrNyxEqy8buutt85vueWW1DrGdBC77LJLSNQ74IADwmO5qQQb8a5JbzZjjDHGbBxamZJhT0mpOAO/bBXtjVjNim5DO+64Y37RRRd1vPWU0Aa2devW5TfeeGOIxWWbNm1a2M4444xQF3bixIn5+PHj8+OOOy4klLHtu+++wSK4zz77hJaiuLHJgNeGdXrvvfcOf9P/8Bpee8ghh+THHnts2HhvthkzZuTTp0/PL7/88rDdcMMN+R133JGvWbMmf/7559vyXD333HPhWmTxhPu/3PmK65XFFfdAynvQGGOMMRHEnZ544omhiL7c+uUs/TgZKs6wVsZ13GGK54cOHRqyrR999NHU+qTmkOj1yCOP5EuWLMnPP//8EBdJEhhWOQRQnEim46dSXQghFgEDBgzIZ82ale+///5BdO63335hI1aXDaGKoJw0aVI4jrQa5bMuuOCC8LrebhKkCGAWIGwIVkSwhCwid/fddw/W80GDBuVbbrllF0s4+62wj6xYfPA/O++8cxDH7OvcuXPzxYsX5w8//HDq09MrONb6PlpwxUmA3Acco3R3pTHGGNPhHH744V0SmxAgcVJUdyWlmMT1M69BfCFyKbqOcFm9enVqHdInsCLed999QeAh3oi/5bvz3RCgEuSINjYE57bbbhsEG0XpET9YRbGWIv7btXIB3+uhhx4K3xMBjMUWoY6LnfqliFiODcctvm5kced/6Ca1YMGCYF1OCd+Bc1mt61UWifJ0d6kxxhjTQSxcuDBkRUugxlvcW72aWC3/vyZ4JvVWKshPO1eslYgpWYf57hLg/I5I1SPuYiyTjz32WOpdb2lWrlwZrLtYb0lo4niT1CQrPcKWjee43rDKs2ho1HHns7PC/R97EnRNsL98h0S3rjHGGNOeIE6xemHJkou+mlBlk0ioJlYVx8drSUqZOXNmQwREX7j//vvD/uFaxzqK5ROLL8KTje/JhgX4nHPOyalsYJoHzgeLA85PXG2Cc4eFk/PJeSXsgraptbRe07wiXrCpSoC6YLEPhGeku6ONMcaYFgehhtUQq1Q5xlSPWanOaVaI0DgWVVZGBO7AgQODqPvTn/5UM1HQX1544YWctq3EbyJKad3KfitZZptttgnJRcRQ3nnnnal319QQ4mERqYRcIFwlLFWbFxFLEh+d0/oC11Vciq1sfWfj+iJeOe3dbowxxrQIJLQg1nBjxjVPy1bSWKDGcYSytOp/sB7hqiWesFkgKxtrmioPyC1LMhOihbhJ3Pumc6EE2pQpU0LCWFF6KiSO4VWgRBoitreJflRBIBwgFqrljeevueYaC1ZjjDGmDDF8CDQmTCWw4JrHqoiAi+PteiNWcbVioTrttNPyZ599ts6Somew3hLXiIVMVmG+I2KcJCZCGuy2N5vCqlWrgmgl9pgwgthzQEIY5bq6Y9y4cZV7qixWseRyfWLZTzwkGGOMMWl58sknQytT4i5lMS3XhSyXmaoWe4qYVdwqApD3TClOqeNJ/B9xgRLd2rCiUhLKmHpx3XXXhQVQViRQIWIRoCzcSOwShNZUs64qJAALbNH9yhhjjOkMKJ102GGHBauPLEA8yvWoLjuxQC3XPK22US+SlpMpePrpp4OrHnGg+FL2FYswMbap9suYGJK1Jk+e3OWeohYuYQRl66rEqiy1eCgIQ0g9fhhjjDF1gWQQMpGxfnaXka+C8rGLP87U16ZJFQvR1VdfnWziv+qqq/IhQ4ZUQg6wPhFLSGF7ujcZ0+zQ6YpkLRaOeAC4llWyjU3PlTu24SmgkQNhLWlHFmOMMaaP4NrHgsPER2bxG97whpDYpBqP1QRrVmTxx92l4nhUOg8xQVKsPQUkuLAPWZG0hUWKZBcy8o1pF+bMmRPu28L1X6miEW/xopIFKAtHqgwkHnaMMcaYnqHDj4qfE3+K6OQRQSdXolo+xhOfJkOK+fP/stxQUgqLz1133ZVk0p4/f37YDwlnXPqIVTKkjWl3WIwpXKCadbVanKuaDHDfUHEg9ZhkjDGmwyF5iOxjrKWyjGI9zQp3vcQmFpqyWM2iWqia/Jjs6LpEX/gUkIzF/iKY5dpHoFJWyphOhKocmypWde9gnSUshkUo3oeUY5UxxpgO4dZbbw1lbJSMEU9acbF9nkPEYlHleZXBiUtOaUIjJm7evHnJJmPiTin7gxWJ/cGlSfiCMeb/wL0fL+AUHlBOxiqL2qzUnAPxSoWOpUuXWrgaY4ypDVgaaetJ0fE4prSnMlL8nRhVuf7jAuO8HkvL1KlTc2JaU4Hllhg7leUZPXp0mECNMT1DtzTuF8RrVhKsus+r1T3md1X+yArBS2MO4sCTDnLGGGNaDzLZBw8eXInV1AQky0lZqMqawv/xiNUVoaq2oLzX4Ycf3mNh8kZAJQImSDasqCRq9bVdpTHm/5g2bVq+2267VWqxSrRqURvHqGdFspZ+x9Kq/2OcoN5r6vHPGGNME0I8pqyeqnWq4uEqsN9dcX65AxGmTDzEmxImQKwq4jA1e+yxRyVzn7CEYcOG5WvXrk29W8a0JSQecu8jXLNSqbnebohXhGvCIdEYY0xq6B2+6667BmGqmqdZManIyqHn5LorW1S1xdYRkq2aAVqqDho0qGLxJWHKGNN49tlnnzA+dCdMy14aeXAYexC8eGnOOOMMC1djjGl31q1bFwQcveiZCKolPlTL9NWmblKyemhymTBhQv7UU0+lng8DhBgMHTo0iG++24EHHph6l4wxETQe0P2pqgGEGsmTU62lcpzQteeee+YrVqywcDXGmHZh4cKFIZGJQZ4Bn0kibmFaLQGiO7EqK+vrXve6MFk0Cwhl9gkBrskMq7ExprmZPXt2KHGndq6Ki6/muSl3sUPgzpo1y6LVGGNaDVoejh8/PgzuxI32FA8Wl46S5UJb7I7DEjtu3Lh85cqVqee2LhBjy4RFySsy+kmUMsa0HmvWrAl1XKnDqoROVRDpaTGt/xsxYoRFqzHGNDNk4CoLPyuSoxTz1ZNYzaL4VA3+TBbElu24445Nm4BEghQTFBYZrMYvvfRS6l0yxtQIStlRIo/7Ow5V0ngVx77G1le8RizQH3/8cQtXY4xJyXPPPRcK1TOYy7UftyrtriOU/q5SMllhPZWwxTLBIN+s0PVmq622qsTOLlmyJPUuGWPqzD333BPGOsYsxCv3vsa3WLBmRRKo4l6p/Tp9+nSLVmOMaRQINcTkwQcfHARq3Ko0FquK96oWd6quUgz4/A8WVOJZm53jjjsuZAKvPwz58OHDU++OMSYR1HFVDddqYlUhAVqU8zOWVpJKU4/hxhjTdrz88sv5ueeeGwZmJUUxAPM72e0MxCoTFW+ykpYHcjY6SZG1v2rVqtRzTq8488wzw/fhex555JGpd8cY0yRcccUVIY4+FqdZESKg32PvEeMlYyi1XxMP7cYY09rgskKYKU5LQlNdYLJiICb5gC5Q1cRqXJ8QcUqGPAN0K0HdV74rCVPN0EzAGNO8jBw5MoyPaj5Q7pKVFYI17qh14YUXWrQaY0xvoMA1whM3VWwZyKKC/LFYlRtfnaLIfC9n9fN8q8ZyktGveDSy/I0xprfgNapWlzUrYlk1tig8AKMAXqpkE4AxxjQjJC+NHTs2ZLJnVbpExeWj4oQpbVhSsZgi6vT6UaNGtXy5JtqgkgyBCF+0aFHq3THGtDA0HFC1gHh8lWDV7zICEA/vRCxjTMdCoXriTnFrM2gixhSDmkXZrD2J1TjmVCEAWBAeeeSR1HNCvyFxiu9Ihv9tt92WeneMMW3E6tWrgxBFkDL2lquixHGtGAGIgb3//vstWo0x7c/ixYtzap5mUWC/VvMqcB2L01iMxlmtWBqxDhAicOyxx7aVW5zEKSWLzZ8/P/XuGGPaGJoNYDBgzMGrJcNBXO4qNggMHjzYgtUY016weqcPPQOdSkIpK7/cPjAWq7E4jX/n/3fffffQgardmDNnTvh+CHBcdcYY0yhoHIIRIB57q7WUlrX1qKOOsmg1xrQuo0ePrsQ7xTFQWeTa19/j/4ndTvHG86z8sQC0K7JqDBkyJPWuGGM6mJtvvjlYVgmpKovV2KjAwprxmRCllPONMcb0iilTpoSWnrKcZqXyKNXEamwxjbP6GSSp97fLLrvkDz74YOpxu+4gwjkeO+20U+pdMcaYCjfeeGOlnFW5JrVKBSJoeSQJNO0sZIwxJahLus8++3SxmpYD87Mom19/zwoRmxUB+8RkaiAcM2ZMftddd6UenxsGcakM9AMGDMgffvjh1LtjjDFVoTsghoi4M6DCt9QVkI3xbNasWRatxpg0EMtEfFK51mk5nrQc11R2IWVFDT8GPSyx48aNyx966KHUY3HDGTZsWDg2JIYZY0wroGYkcT1WNViRWGVsp9FKyvnKGNNBkOxDsP36H4NbPiuyQrOoiHScDBVni8biVLX7eC86qVx++eWpx9xkUKaLgZ2EM2OMaTXuvPPO4BFjTlC+AQKVR56TkYJKLU8++aRFqzGmtmA53WyzzaoW4S/HKjEwyRXEAKW4pTg2lZ8pcXLDDTekHl+bAo4tx4U2hsYY08rMmzevYlUth4LF9bAJH0g7sxljWprrrrsuuGvo9sTKWCJV4jQedLoTq/HGoEUm+xVXXJF6HG0qJk6cGAZtW1ONMe0GTQVib1pZtDK3bL755hasxpje8eyzzwY3NAk91bpAVRtoqv09jlvFWnjiiSfm9913X+oxsymh1atjU40x7czVV18d3P5x1YB4vuBvhIHdc889Fq3GmA1Zvnx5CIpnoJC7JotE6qaKVYrVU0PV1tONM3DgwGB1aOfasMYYIzBeVEu4VbgAFlg3EjDGZNTFw3IaWz/jQs7a4lam+rvq5mVF7Tye53G77bYLrmzTO6ZNmxaOsYv7G2M6DUryqVmAchmyUn1tmp8knCaNMY1m1apV+YgRI0J2ZhYNCnG90+62atZUDS4WWn2DRgYcv7322iv1rhhjTBIodZiVqsfExhEMI45jNaaNeeqpp0LcKck6uPaJBcpKrUllOS0LUwYIMvfZCHqPn9t7773zxx57LPUY19KMHTs2WBSIDTbGmE4ntqzGCbp6dKUAY9oI4k4PO+ywSitTFWBW95CsJFarZfBnUa1UrLAIq0WLFqUey9oGGhwQLmGMMeYvTJgwoTIvlb17iFkLVmNamGeeeSbUKMUCmhU3ehYV2M9KwjT+Pbam8hzuFpKizjnnnPz5559PPXa1HSwaXJbKGGOqQy4FwlQGFnn/sqILlhsIGNNivPjii+EGVuco1T/tzZZF1lVqpxJ36p7z9SUril4bY4zpHsLMmM+q5U/w/DbbbKNYV2NMM0NSjiyjWbHirFagv7sN934ntzJtJH/+85/DggJrgTHGmN5RTbBmhYEFLyAx/6nnYmNMFS644IIgNHGFqHWpYlLlzlfJqfX/HmJWeY4YyYULF6YeezoSzs1uu+2WejeMMabl2GqrrcI8p5KK8iDyWCQNG2OaiUmTJoUbVy1MeeSGlVjlOa0+uYlnz56dEypg0oFFlQWGMcaYvjF8+PDK3IaxBiMMgpV5j+YzqedmY0zBRRddtEEWv25eBBFuEeIhadX58ssvpx5bzHpwU9FC1RhjTP/AO6iuVzLQIFrVnjXxFG2MQYBWa32qLlLbbrutu0Y1GYReOJnKGGNqB1bVslhVByyHBBiTkBkzZoTVJDeiYnayoiwVcTx77LFH6vHDlKA0FZZuY4wxtYW5jxasEqsqZ4UBZ/LkyRasxjSauXPnvoIkKgQqj/Fqkt+vueaa1OOGKTFt2rQQV2yMMaY+SKTKsqo5kseHHnrIgtWYBlNpPadkKhVHXrBgQerxwpSgjArW7mXLlqXeFWOMaWvwXqnzIiJV4QADBgywWDWmUey8886V0lNqm8ojrg5nlzcnxFPRLtAYY0x9ueWWWyplGlW2UcYcSgWmnsONaXso+K/6qVo5Kqlq6623Tj1GmCowYA4cODD1bhhjTMdwyimnVOZJCVU1xznzzDMtWI2pF2vXrq30QpZQlZuDFnOm+ViyZEmwfLumrTHGNBYSkJkrlWSVFeFzRTKyMaYeYJ2LXRpycVBHzjQn609bPn369NS7YYwxHQn5HNlfBGrY8EJieU07oxvThhDvqAxHWVcVr/rHP/4x9XhgqnDCCSeEMirGGGPScOGFFwbBGndxVG3y1PO6MW2HWqiqdSpuDTIeXaKqeeE8rVu3LvVuGGNMRzN48OBKyJzEKmEB1L1OPbcb0zawKoytqloVYl01zclOO+2UH3zwwal3wxhjTJ5XkqwURseGYH344YctWI3pLy+//HKlRly8KuR305ww+FGq6oUXXki9K8YYY9az9957h7k0Fqtsu+++u8WqMf1l1113rXTgUHLV+qfzQYMGpb73TTcMHz48HzlyZOrdMMYYExEnKMdVdVLP88a0A5U6qrq5qLNqmhdiibGuGmOMaR6OO+64DcQqcyvPp57ojWlZJk6cGKyqZbFKBw7TnOy///75FltskXo3jDHGVEGhdLKqkg9CKavU870xLQsW1KyKZXXcuHGp73fTDWSd0rzBGGNM8zF69OhQTSfOAUGwzp079xWp53xjWo4FCxZUMhfVeUM3FvU7TXNCYpUxxpjmJSslLCNWBwwYYOuqMZvKiBEjKl2qVGNV1lU6b5jmY8qUKRarxhjT5MSeSoUDuAWrMX1Aq764GQB9jhFDBIOb5oNzNG/evNS7YYwxpge23357VwUwpr8MGzas0mFDrVX5+eqrr8733HPP/Nhjj019r5sqUAXAGGNMc/OnP/2pkmSlnBC20047zYLVmE2gIlbjlR8gVPfYY4/Et7op88c//jHffPPNU++GMcaYXkCSleqWS6zivUw9+RvTMtBeNStuIN1MPAeLFy/Ot9xyy8S3uSmD1XvbbbdNvRvGGGN6AZVbypbVIpnZGLMxpk2bFor+68ahPRzbOeecU7nJ6GZlmotddtkl33nnnVPvhjHGmF5AvfKyWF0/BVusGtMbSNIpAr0rVlXEagxW1ttvvz3RLW6qQWzxueeem3o3jDHG9IKDDz7YYtWYvoJYLWcpKgRAjB07Nn/ta1+b6BY31WCBcccdd6TeDWOMMb1g1qxZldwQi1VjNhEVKVYVALYddthhgxvtNa95TYLb23QH5+ypp55KvRvGGGN6AcaFsnGIpKtRo0ZZsBrTE3Stqlb7bdmyZRvcaIhZknpMc8Cq3BhjTGvw/PPPbyBWZSzabrvtQoWX1JrAmKZk6NChG4jVcryquOWWW4LLwjQHPhfGGNNaKIFZNVclVrGwEn53wQUXWLAaU4abQzeLtp122qnbG426ntxMJj3luGJjjDHNzYEHHlhJaM6icpF65G/77befBasxMbFIVbvVE044odsb7cknnwxujDVr1jTw9jbVyGxZNcaYlmP58uWh+2BWEqxsPM/v1DZPLA+MaQ7uu+++vCxWuUlw9/fEIYcc4iYBTQDnzBhjTOuB2z8rxGo5flXJznjPTjzxRItW09mcddZZXW6QrFjh9Qbarw4aNKjOt7PpCSzcS5cuTb0bxhhjNpGs8IxNnjw5V61zNn5mUwzrq1/96nzSpEkWrKZzGTZsWLhhYrHKTdJbaPW5Kf9vagvn7Mgjj0y9G8YYYzaBp59+uksY14oVK0IXydh4xEZ71kMPPTT8L8ahF1980aLVdB7xak5ilZtjUyAZy4I1DVjBd91119S7YYwxZhNYtGhR1TCubbbZJt9ss82CRZWfEaqM88SxUkGA8IAzzzzTgtV0HOGmiMto7Lvvvpt849FAgIYBl19+eS3uY9NLOF8DBw5MvRvGGGM2AdquIjyrMWHChHyLLbYIczGClTk6K1qg84gFlr+nFg/GNAS5IeKuVWx9LUtVrPbCjWYaAytul68yxpjWAuNOT2N34e4PLc6ZoxGqimVlw9JKkrObCJi2h85VsqbGdd5WrVrV5xvw2WefDTfhjjvu2Of3ML1HCwxjjDGtwQsvvNBrQwNhdq961asqjQQkVuM6rRdddJEFq2lfSMyJhSrb+qfzl156qd8342677RbcFP0RvmbjkC3KAEabPmOMMc0P3ke1XO0N06dPryQ/lxv4aKMTZWpNYUxd2GuvvTZos5rVsMj8tGnTgvvCCUD1g4XGnDlzel1uzBhjTFow5Oy5556bPN9WE6lxB0rm29tuu82i1bQXI0eO3ODCz2rcEYmwACx/BISb2sOxBSysxhhjmh8spDfeeGOfquggdDFOsJUb+ihEYOrUqRaspn0gy7AsVusV/zh69Ojw3tSSM7VDYnX77bfPx4wZk3hvjDHG9MTee++dDxgwIPzc1/l2xowZYb6OBWssVrG2EuuaWmMYUxPoilFu8cZz9WL+/PnBwjp27Ni6fUanIbEKrnVrjDHNDdn9TzzxRPi5v2UHSbxiTs2KzpOax/UzopXW6am1hjH9ggtd7gSJVoK068natWuDG2Orrbaq6+d0CrFYpYzJlClTEu6NMcaY7sD1T8F/UQvDzYgRI4JgZS4o56AwxyNYXS3AtDRY4spilULFjWC//fYLNxKrPtN3YrHKQMgxNcYY03ysn3ZD5ypRq1yDs846q0vNdFlY1eyHjdboqTWHMX2CC7ssVsksbxQLFy4MNxGxNaZvxGIVsFgfd9xxifbGGGNMNW6//fYQAhBTrd1qf2AuXz+1h/dVaSyaB+g5wvyWLl1q0Wpajg3cBtxQjQaBRbvWJ598suGf3eqUxepTTz21wYBojDEmLYRpXX311V2ey2pcfQeon67mAWokoDhWhQaQ5JVafBjTKx599NHggihXA1i3bl3Nb57eQFgAsTXXXXddks9vVcpiFYYNG+batsYY0yQcddRRVRu3ZHUQqzBz5sxKdQBZWctVA6hIkFqHGLNRbrjhhnDRxiWrUrftnDdvXlj1ETBuekc1sQq0vDXGGJMeEpf/+Mc/bvB8ViexCs8880wQpGoawHyvOZ9H5gge77//fotW07zQvg3LqlwDemwGWIHWs4RWu/CnP/2p24Sqww47rFd9p40xxtQPjC9XXHFF1b91Z2yoJdQ4l3WV+ULGKYSqNACezdSaxJiq4JZY/1Cpz6bHZmHfffcNYqtR1QlalZ4GO0qkMFAZY4xpPMcee2yIVe2ORlVvmTBhQvisrEi0qta5kvk2qSgxphqs9lhdZZFYzerokugLlLVi5Tdq1KjUu9KUXHDBBRstfYKrBzePMcaYxoKHsKfxl7l3r732atj+YMDQXC8LK/ugzlfMJ5RATCpOjInB1R6XrsqaUKwKEoa23nrr/OWXX069K03F4MGDwznsieXLl+ebb755g/bIGGMMMO4ecsghPf6PxGMjOeWUU0I5qzhXJd7w1u25554WrKY5wDWhAsKysNIFo1mZOHFiuLnOPPPM1LvSNHDOehPztP/++7uWrTHGNAhKMVbL/i/D3EupQfIPGglGDISyEq7iVq1Z4W3FykpSWGKpYjodVn3xaoqLs9kTcggLwFXh5Ks8nz17dhhUepsUR7ySBasxxtQXmrL0thqLaqFSGzUFiGqMVFkUyxonXLN/DgswSdliiy02EKtcmK0AAwGr0bVr16belWS87nWvC8cg2wQXEud5zJgxddwrY4zpXOjKiCGot5ZSFe1POfeShDto0KCqYlVhCsTVptYspkPhhsoKc3/coq1VoDQTborJkyen3pUkEHPEALKpgxyr6GnTptVpr4wxpjOhOxXj62OPPdbr1zB+n3baacnzRehcSUhAFiVeqduV6rMiaOkymVa5mI4DVzo3SixWm6XOam95/PHHg3WxE93bnDsC5Td1gUHnMsI9Fi1aVKc9M8aYzmLZsmVB2C1evHiTXocIxBrbiHqrvWHIkCEVq6pyWUqlrYKxI616MR0FYlXm/lYVq2LnnXcO7opUrWJTwCD36U9/uk/njBgkRD5dzIwxxvSdZ599Nni6+uLlw+jw4x//OIQONEuJQWqcZ0V1IFlVVdZKInaPPfawYDWNAbEqodqKYQBlqBbAzURP5HZn9erVYcC4+OKL+7zAWLp0aTjnK1asqPHeGWNMZ4BQZQyeNWtWn16PEMQqO3z48FA3u1m47777chm02EclYUmsohW23XbbfO7cua9ILGVMu1NNrG6sZmcrwAoVq2E7M378+PAdr7rqqn6dswcffDCc9011XRljTKdz1llnBff9hRde2Of3YPz92c9+FhJfm7Fb44ABA4L7H8uqRKo8slkhXp18ZepKNbHaLHEz/YWbh+9HLFA7QvcxNtz4/V1g0GiB9yD+1RhjzMY54YQTwrzZ34U+8y5GA5oHUIi/GaG2OSIVfVCuICTtQN5IYklj2pVyNQAES7uIVZg3b16+1VZbtWW1AMqOvfGNbwzuI87b008/3a/3e/jhh0M5MCy2xhhjumfBggVhrlyzZk2/3wsR+OKLL4barHRqbFYIPaOLpOJW44oBStRmXnriiScsWk1t2XHHHbtYVtV6td1AsJJ81U6sP335EUcckf/+978PP9922201eV9KkzAgGWOM2RAsiCRT1QpiQfFuTZgwIR84cGDN3rdeUN9blYTi7lcSrYQMjB071oLV1A4uurIpP0tc661eIMK4saZOnZp6V2oCgvKggw4KrfAol8LgUCuwsHK8nnvuuZq9pzHGtDoIM6yHtQKPFrkHL730Uv6e97wnGFZaAazAHAvEqcQqGyI2K7y1/C2xxDHtwuGHH94luy9rY7EKxN2wiuV7tzq77757WOHiPtpvv/1C/GotOfDAA8PA49JWxphOh4x/3N+1HmfnzJmTjxw5MlhWabe666671vT96wnNAdTdKq4QoI3nt9lmmzBHJRU6pvVR14w4WDprY7EKtMAj1qjVXd2sbFmR//nPf87POeecYAmtNffcc0+w2uKeMsaYToTEU+ZHulPVGtqcHnrooeHnAw44IHRlbDUwnCh+NRarcdUA5qjUese0MGTKZ1GCleJOOgFZDlu1ZBOJVbhZnnnmmfymm26qa1/pHXbYIbi+Xnjhhbp9hjHGNBvkdajFaD0gvlN1wbGqUgqrFSHhTOKUcLtytQB+Jh43teYxLcrKlSs3EKtsxEF2AnQLUSeOVgSrJ4WbSbJCrPa3IkBPEDrBwHrUUUfV7TOMMaYZwIrKmFpPS+dvf/vb8Bl4sHCV4zKvVaJsKsh3UD3WWKzKa6tSX6m1j2kxiMMpC1W2eq0imxV15mg1EI+06cPiSbvZwYMH1/XzCKFgMGrm8irGGNMfEFl4kqZNm1bXz6EBwHbbbRd+JsGK8DTCulodxbEivrNCoOpRuTE0QEgqfkxLssEq6K677kp9vTcc4m7IxDz//PNT70qvYTCYPXt2GODmz5/fMMGtxLxmag1ojDH9gbA45oBGlY/ic04++eTgybzsssvaqmzkkiVLKh0xs5L3lt8xejgswGwqXTpSsLVr16eNgTsGa+Xee++deld6Bb2kJ02aFCyrjz32WBgYWKE3AtxW9IXeZZdd2sIaYIzpXIYOHRrGfnIBGsEjjzwSLKnf//73w/j55je/uS1anZcZMmRIJYk7trAqVADRSsvw1CLItAZdMvfYyNzrZLBYtkITAdr9IRYpe0JIx/bbbx/KWDWSoid0qE5gjDGtBJ40Yv932223hn4uZQcJASBBlo1QNARzO0JOCMdYYhWtoW6ZbDxHq9nEOsi0ABuIVWJpOh2OATcUdfCaFayb3OzLly8Pv3/zm98Mg0Kjoa81WbOsljslOc8Y07o8/vjjwapHN6qbb7654Z/P3HLhhRcGQwNJslh1H3300YbvR6PAW6sGAtqYu3hOgrWIcTWmOoibslhtpcLE9WTt2rVhEKF0U7NCoepTTz218juu+VQZ+yqFVstWhMYYU0uoL06S6Pjx45N8Pl4oxm2quMAll1wS5plOgHKRzA9YWVksZJGxDNHKc5MnT7ZoNRtCDbmyWG0FF3gjGTBgQGgigAWx2SBmFYH6v//7vyH26XOf+1xysUhLW66nVi0JZoxpPwhvQ6A2Ki61O9ZPu/n06dODVRVPFF6pRochpIQmM4pZRaTH+qNo0RoWE6m1kWkyKHnEBRKb6Nsx0Lu/sBpXMHgz8cQTTwTXP9mXsG7dulDCiqYHqSEui8Go02OgjTHpuOiii4IQwjBD+b2UUGOU+fWBBx4IYVzUVa1nQ5dmBS8cHRiZHzgecberrEjIwkiUWh+ZJmLPPffcQKxmLVhztBEwsHBsSCpqJrip999//5BkxQD4xS9+MbhUmgFq9hJWQgJBM8f/GmPaC0rrIYgQqVR6aQaYPz784Q8Hiyrb+9///jB+dyp4LMutWTlG2hCyN954o0WryTIshlwQEqxs/E53DVMd3O6Ir0aVidoYzz//fDhniNX/+Z//CaWs9tlnn1DYulkghILs1/WXXEv2vzbGtAbUnsbbRMLODTfckHp3KlDLm1JOWHf/+7//OyRW4a1jfzsZPIHEsqI9YrGqJgIIWareJJZKJjVPPfXUBmKVlWgz3eTNyMSJE4P1kvJRzQAB++94xzvy5557LvzOanTLLbfMH3744cR71hUsv+svu3CdjRw5MvXuGGPaBBboCB/ms2ZrW7p69eow7p177rnhd+JVjznmmGD0MHl+6623hpAAdbjKSmKV32nYgGEmqWAyyamUjyDY+6CDDsrPOOOM1Ndv07Nq1aogupqhegJuLs4fgyIDITc1haazJg3poHQMAzUusFRZucaY1mfGjBnB3Y91TmX8mg0MQOPGjavEzFJpBvHFvpu/gPdNSVcSqqrJys/MGfPmzbNg7VTGjh0bRA3tzygq/4Y3vCG4ailWbDYOLgoqKNBFKiW4lIiBIjyBcIA1a9aEQXzEiBFJ96snSAijTzQDE4Whn3766dS7ZIxpcqh8QhIpxgJKC6Yee3uCOZWQBNz+GBKo3PJP//RPQayaDSEhNytasiosMc6nYaPLZFrVZJKAa5ZA5wMOOCDcRBTEp+wQVlbTO1ghEyO67777JtsHrKrc2Ndee20lnpZwDmJsFyxYkGy/esuxxx4bVtYIf76LMcbEkLCJgCHsCRFINZRmBvc28bNXXnllSKjCsrpixYpgPaTlqqkOiw/OMQKVYyXLamxl5XmHBXQgxF4eccQR+T/+4z+GVQsWufVPB6uh6R3Eh3LcEP6poD4dJaOwPDAwsoo//fTTw361ChSFZn8ZmJqt8oIxpvHMnDkzuIAZF1jQtgoILuZVIKmKHJHhw4cnr4XdKnC+EaeqycqmrlcSr3QCS62fTIOhswbWVczvXAgEOPum2nQIp+C4pVr1c+7OPPPMEMbxn//5n0GwYi0n4aqVuOuuu4K1musQEd7O7QiNMRtCBr3EyaJFi1LvziYhoYU1GO8lxoPLLrvMTXc2EeYyRD8xyWrRqmtCuTYsAFLrJ9NAqNXJSiUu0usmAX3j8ssvDzfUkUce2fDPvuWWW8KCA7HHah6xSms/YlcR0q3IKaecEo4n4hXLqzGmPeH+Jg6VuYewKpIxW42hQ4cGAYW3jfGXjeQvBKwqApjeQ8gE1wNCn3kAKztW1qxoICCrO3kaqXWUaQBz5859hVYucaFexCrix2waxNNsvvnmIbi+0RC+QTiA6q6yqqecC/FTxLC2KiQpEBrAtbn99tu7xJoxbQB1vYsWm2G8bLZOgZsCyckYBYhXBWJVyf5HwKYMEWsH6LipEleKX1Vsq1q10so2tZYyDaDIsgsrFR4RNwpox6qFADObBqWtuLHIfG8krEKPP/744IICrKzf+973QjhAq5dMQYDjCWA1zUBFJQFjTGtx4oknhnGKzHisqIi6VoYKBcydtHhl3GW+pMLJqaee6pC6GoGXDcFKeFi5RrwaC5B8l1pLmQbAoIFIXf9jEDYSrFgJEbPN0rmplWDw4hhSa69R4DrhHKpDClZWBCtWCxYfxAK1A2SOYkmWW6gZ6t4aY6pDi++sKEFEshSu23YAtz9xlXPnzg3WVJJcmStpM82C+s4770y9i20DHjaOqTpfxd03s6ipAIufhFLKNAJcFqwEEQC6AHC/UoP1TW96U4iLNJsORfApEN0oaKeLq+S73/1uiJsiHICB9NJLLw2W8qOOOqph+9IImByIzc2KOn0svMjANcakAQsj9ySGD6yOhO802stUb0hORjh99atfrRT+53urTBUZ66b27LTTTkGfKL9GW9y2dfTo0Ras7U4cH4JQJRaHDVcHorXVXcmp4Fji9po1a1ZDPg9BSgwVCVcUpf7DH/4Q3Ohf//rXw/nF0tGOMFnQgjEr2rsyaNF1zBhTfxYvXpyPGjUqeHGGDBkSrGHtCJVWWPhfcskllTA5DAM333xzEOfE4pr6ccEFF1QSrdgQqtqyQrAy/6VVU6bu4KYhDIAWrAhVdbeilScNBCZNmpT6Wm1JcBWxIsTy2QhGjhxZyazFsopY5ZEQAW7wdj+PTJSIVazMeAyIabJbzpjaQYmm22+/PYxpLMQnTJgQBGs7g1BlfiSpB6GK659wq3vvvTdUNOBvpv4QCsaCQaFg5Y3n8bTxf0kFlakvlNoggYUb841vfGPYEK2HHnpoCAkgSN70DYVbNAIGT1b5Dz74YJdEuWuuuSYkKlHTsBOgnAxNMAjHWH95B/ddo6zcxrQTxL+T4Y71lLhxOuUpobPdocMjoQ24/ln8A4Kd2ta4p/FMmsbCNYhBIraqZpFgJUSABK2kgsrUF1YkTPCxWMWyys/UEsXa2mpFm5sFLH5YNzm+9YZJZfDgwcHCyqRCpircdNNNwQqQosxWaq677roQS6xOKWy4lowxXVm6dGkQaKrHjVAlXrPTwMDAIvfnP/95+F31rHkkwZMwL5MGwt5UzSjeVDlA125aRWXqDv3bsbAiVGnNilCVcOX3K664IvW12pIoYxRLa71hkKXsE0IVCytxrHD33XeH2LJW63RVS6igsNtuu1XKoiDe8SqsXLky9a4Z03DowodbHytiFsX/dXKCLcYFXM6/+tWvwu+MoSRVkTTG+M34atKChTsrkmzVREANjlRHHgOFmwi0OVidFALARP6Wt7wltGk9/PDDw/P0cTZ9A3d8I6yb3KjEsCLCZGEl1ooQAeKREaxksnY6iFcWZJRtW3/pB/ceJb/uueee1LtmTM0hRIbM9T322KNigUKAdbI4jSHk7fWvf32IgWfMRKQSp0qMKsfJFtXmQpVh8JoRBhCXuGKuxdPI+J5aU5k6gusUsaqQAESrQgQQrBMnTsyfffbZ1NdqS4L1mpuo3nGUlJAhJOCXv/xlcF8BsVcMwiRcrT/NIUnC/AW6gHFtE/vLoMcASAiMxatpRagQwmTNtUz4C279MWPGhM5wiDDzfxDXT7jD2WefvUH7Vxb1xL83witmNh21PleFALWTj9vKE9aRWlOZOoIJnYkb938sVo844oiw+kTMLly4MPW12pKQVcsNVu+yJ5SWwVVC1u5zzz0XKgQAj8QgUw3Cg3D30CaSkApa2GKNpmnG+PHj3QbWNB3c31ybak/JIx4W3Noep7uHBOOjjz463NMs6hkbCZ165pln8vnz5wfRQ2tr09xwrWdFs4ByiSt+528kDKbWVaaOENCMNRCROnbs2CBesbYiWHEpOyyg76jVbT3b3CK0iMG69tprgzWFwRirOFbW5cuXh7CE9ac5JCKZjUMSCiExivNjMYD16o477ki9a6aDYOIt6kt22air7Guxd+D2ZyNcijApxffz8ze+8Y0wNtv13zrEYQGIVBZtWZF8pbJXRW1u065QDgJhijWVpgEIVn5HsLqBQP8goQ3ROmXKlLp9xtSpU0Nc5sknnxxEKqJVHa9IHHjve98bbmRi2cymgdsQyzXH+K1vfWulbBZlVhCxt956a+pdNC0MVlFCUailzMJTsXkklWA8INnEbBpLliwJWeXnn39+/vvf/z6MgxoXifHHQs146KohrcfVV18d4lURrOrOKaGqcAESjTnnaVWVqRtY4RCpVAagiQCiFQsTAylxrGeccYYHzj7CcUNM1rPv/f333x/iWDlX/Iz1ALAm8POPfvSjEBKw2WabtX2x73rDQEjSCgsR3FMaJEngQnysXr06uG2NEVj3cDszplIzWZnN3I/EmeLBInvf9A9C24455pj8hz/8YaiZSrtmWVQ5ByQTY1El+dK0LtTBzYo621kkVLmvELJ4xNAsqXWVqRNkk2NJpUIAE7GqBvAzG6t912PtO6z4cDtp8KwHuA5JvMK6QEgAwoqNz2QyZLJkJYqwMrWDBQmuW447ncXGjRsXEl4UU0X8Mp1y1q5dm3pXTR0h5Ifi+ljemTDlqmTsZLHIOEpFCpKjTO3Aw8E995GPfCR4k/7rv/4rWFPxMGFN/clPfhIW8whVxfab1oZOhohT7i3V2OZ+0z2XOSygvUHUIGgIA8DSyuCKgKV+Jeb39f8SElFM39hrr73CMcRFVS84VwjS8847r0viFef2pZdeyr/97W8HVzarURYopr5QvxjxglhhIYE1QCKWDevs5MmTXWKoRVi1alU4Xyz4siielPuJBQrP40U566yzXFWlzuDaR6QSonP99deH57CosmhApCJaL7300jAe1tOzZdJApQeJVJVrU5UAVXzhnkwqqkx9YUVC4hXWVZnc4zpnbtPad7DCIVjqWcCfWoJYEQjn+N3vfhcmTYUGIFhxj+Ey47xS+qNT2iw2G1jYiBmnA5kGWyUMcP7YuOewyA8fPjy4km2drQ8cVxIRWVBSSUO1HLMiCzkrkjm4X/idmGUvMNJBXCpGlWnTpoVFOVZUvEc8ImIZ97hncAvPmzcv9e6aOkI4je5PWVfjRgL8HT2TVFSZ+oHLH9cJN3sWiVUSdbC20h3F9B0sMLgwWB3WCyZerHlf/OIXQ7kWoTqM1BlkQcJ+kGlsmgsWEcTAcq9xvSiZQK6vrKhYQPgH9ypleEjMwSNC2MGNN94YisXXM/SkWSE5joQMYtfwFnFMiA/F88CxooqGjqFi3VhEEq5DXU5COhyn33wsW7YsXNunnnpq/otf/KLyPIKV+4Wwpy984QvBY8Giw3QG1BWPhWq8cZ8zdpLEmFZVmbpBFjQDOCecCZKsVeqysiFyyI6ORZDZNKi0wCSJlbNecA45f0zAZMdiYVUsKxtWVxI8sKDzf2672zowOdPUAIsg3YvIdMYrgnhlcI67v8TxXBJpCDbEGYsaLIW4t8mS5hogEY/FDO//6KOPBms8VnmumXpAuArvT2MLhCaJglie2Q8sYwgURDtjDzWGCavAxSfhHpey4Xe1aWT84ngg5BGtWOJYiPO9iGs0rQHXB/G+5FFwPVA3lfOnuqksLFiYkXPBecdjYToLPB1YURkD4lqs8YbHZO7cua9ILK1MPaCuHy5rWnwy2EusUjkACysWC5fw6Tu4HxEN9Y6pwiKOOxlXMsJDYlVWVsTBSSedFAQAE7zjWdsTJnWstRRKR5iec845wSqBW5X7mkYJxKUj7kgMwzpFvV6uUa4LNoSgBLCELz/L+9LdVo4rU71EwiCYZJhIuP7wBiCisYRgCcXqj1WU8YcFMqKa/SaZjQoMiGq+VydakDsBRKpc/gjT+DxjUX3sscfyiy++OHgZuIZsQOlsGLdU2qqaWGUsostkam1l6gSWF8QpG0IVkUrXK35WeSvTd7BschPVs+g3NyhiAyFy9913d/kbFlc2rBPvfOc7g1WO/UHEGmNMo0GkYiE9/fTTQ+IU4xPWd8FC/2c/+1mwtDOu8WgM4ElcL1vCQjirsphmsVwkSZp2BEsGSTsIVwRqvCFeaf/nZJ2+g6ULty3WrXqChZVV5sc+9rHwOy41EhNwteFaIzTg17/+dbiZsVZgWfd5NcY0AsUZv+td7wqLZ7w/ZPgzRiFWGaPuvffekDSD6MAqb0wZQorWy5ZKoiTCFSOMQob0iCU+rbIydYGCyghWGgaotBVxRLgQiX1jhet+1X0HtxauClwZ9YQi2SQh4Gb98pe/HFxr3NyguEQecRdznrnJiYckntAYY2oNsah0+yMc6aabbgoiQnHSimlGuH79618PMcu4ekkiNKYnaJ8dx7SrrJWsrcobSa2tTJ1Qm1ZEKzVZiSvDCpcVFwQCx/QdXFrcUHQXqydMEMQgsgChMgHWC2BiUGwYkwVJPG9/+9vDuSWMgPJYxhjTX0gOpBziBz7wgZD8Fjc0UVw9G8X9CT2jI+CkSZNS77ZpIbhe4hqscTgAXkZ+HjFihAVruyJ3DUJVrc+yKKiZJAnTdyi9g+uCsIt6Q8kjziEhHVgrmCRwvSFYFSZAKADlYrCmM2FgmV26dGnd980Y014Qb0rjBEQE1lSEaLk6A2MQ4w4LY7pTEdfvEnumr+C1JIFT1lWJVSWJYhxCzySWVaZekEWs+o+IHUzqEqsILeJFTP/gGJKN3QhwmXAeuWmZPMiyjhsKqKkAsWRYzzn33PwuFWOM2Rg333xzmBeYN9ioOsIYw7iCRRULqn6mA9VHP/rRMBYRguSGGKYWkLMhsSprq2otF1rGtCu4cHSyOflqJ6nyEWwU2TZ9RzFal19+eUM+j5AOwgOw6v7mN78Jz0m0CiYVqgVQPYDzzmsICzHGmBiSoRhPmAuID2RMIUZe1lQthPmdzP+zzz47iFnGkzvvvDPx3pt2AE8lrn4S8sqW1bhzoFu0tjlr1qzpUpQ73rKiraeFTP+gkDmisJHxwJy3HXbYIT/++OO7xM9iASFEgI1JhoYDJD7Q4pCbnlqZJGcZYzoT6p9S3xkBwBhCZykaPRBehIufsQMLKotgHhnfVFOV0kOqAW1MXyDRG6s8daJlNT3iiCNCCUcaCDBfcW3GBja2omunaXfUUSbeYkur41j7z6BBg0I5qUYN5rjpKGNFeAAdYohb1WdLtKr+IfGtV155ZX700UdXBgiKeRtjOoPzzz8/WFEZ7ynDd9lll+V/+MMfwjhBNzQlUGnM+NWvfpWfe+65oWY3eRDuLGb6wu233x4MOVnRHp75h+Rv5h864a1bt65SgpFrjxhWwt7iBiXqhkd8dGotZRrALrvsUikNoQtBG8/xN9M/sFggHhtZSgrLB12FOI90EqIgNzd8XKhbmbtAgwNCBIobP3Tpcr1WY9qT3XffPbhYsaJiHf3+978fnlfZKTZqOCNUGQeo5YyQIMOfZKuHHnoo8TcwrcbcuXOD8Yb5BQMOc83b3va2/Bvf+EZOmc3uDDpckxhWrrrqqkp4Sla0opZWYdGUVkmZhrDffvsFE3tZrMailVqfpu/gMqMmKzdoI8FCwmdykxPfQ9IEN76srBogVE0Aq8r1118fSl5RRYBrgkoCxpjWhsSn9cN9GAe23377fMaMGcETwxig5EwJVTbCxX7+85/n7373u0PLXOYJt8k1vYWqNVxvLIqw3DP/HXTQQaGCDQuhWJwy/3D9qW54TPycruF4Q6OMHDnSYrVTYKVMzKP6gXMBZEXnCIUIEJtk+gcTBTcvN2ejKYoph0HjQx/6UP7AAw90cfExEalWIqtZ3ICXXnppjvUdsUs8EY0Jqg0oxpjm47bbbgv5ByRUkln9r//6r6G8FGKBUlO6/+PxiPhV2qZyv5OQ26hEUdO6kLyLBw/LqWq4syB673vfG/InqCSBkURzjJpHKMxEj7G3T+h3/ofFE95etEpWhBDwOxt/T6uiTEMpsus2WLnI6soFaPoHVlbEHy1bU0DAOm4YNoLaWeni6osHEm3AZMaAgxuQSgdcBwhuMoDVScsY0xycdtppwdJETCAVQr74xS/my5YtC5n73OOIVN3r3Nv8zva9730vjAcYLPC0IT6MqcZvf/vbfPLkycGQwfXCfMZiaPz48fl3v/vdYAihqxkwt3CdaY6pNs8oiS/29sXoOd7j5JNPrnS0Un4NVn86c6ZVT6bhkB2elZoGxOWtuDBN/0AgclxxlaSCbF9i14inpf3uV7/61eD604SmQUSDDOAupHvWe97znlD0m2uCurIkahhj0rBq1ap8u+22q8QDxrGAunexbCEiBM/zO5nWNA8hyYX3oAOeMWVuvfXW0D2RhQzXGfHOJOcSIkLLXWp6K7ws9r6VraZxdZryVs2yCnqe91mxYkUwlnC9si/77rtvyAshbI3qAUnFk2k8uPxV2kpiVauZrAgPcBvP/jNs2LDglsctlxJWpSxSOOdvfetbQ0Ym8asQC1YNNBqAcMvQepFMTQYO3DFYdYwx9YWEFTV5ITyHe/jb3/52iP3DqoU4pVg/9y4/8zyPJF+SUDVu3LjgsmWxSYz6E088kformSaCjH0EKXM/1xlVZkaPHh3KmhEqQlKTGkN0ZxEtEwvWnrae4HomvIC5Sp3SlHiFiE0snUwKsP5lURgAFwdbcUGE53Abmf6BVZJFwIQJE1LvSkDJdpxrMoUpCi7BqnauQHUBQLgC4vZLX/pS6HpDnBwVBVjtzp49O9l3MaZdIC5w4MCBYXHL+ItliQL+uGTLEzwiFQHBPYsIlav/K1/5ShC2xPxxn2MtMwamT58e1y4NCxkslsxPWE1ZAMlKrzFfRoxG5mBwHatWPJ5BBLX2l0e+R0LZZFLBRYhbKSvCAhjgEFbqgsUFQtyK6R9k6bMo4MZrFohJyorVKtZSYmwJA4C4BFbZlYOgpR4jNRtxK3LN8N1YmcfNCowxPUO5HhZ9sqAiMk866aT8xz/+cbBuMXFzL8Yxf4pD5ZGY8s9//vP561//+lB2CnE7b9681F/LNAFYTrGuq5wUczoesilTpgS3PsYHufNZDMmSGrvx43jTRjaGwFBCqAuNbUaNGlW5P3gsvL+mU6H1GeKUC1pxrFkhYBlAnXhVG0hgIlC92WqcUgCcVTdWHdyNn/3sZ/PVq1dXXEDljUUOEybhDTQmwGVJYDwuG4qPI4SJjZN11hiTh3uKe4NFK2Msngm8FMSVktmPYOD+wqUvF2wsVuHhhx/OZ86cGQr3I0SYwElA0ULTdCbkKEydOjUYENQIglJSn/jEJ/JFixZVqsMoxEtwzSmHIQ4FSyVWmRvZ8B5wn4wZMyaEsCFSMYzwvSi1mVozmYSQ/c0AyuDHBcHFQeyqYll53vVY+w/VAjimFN9uRtgv4tzWXxIh4P7LX/5y/tOf/jQIT8Wz4jJigKMTCWhFzgCD63HBggWhpziNCLiusLqSuWxMJ8E9g9uSWsaMqSQ7kjDywQ9+MCzmVP8YJA64v7i3mLD5nffAEobn44ADDqh0BKIaAALFdCYsTihXKPc4HlK6RPEc4y+lCSUwqyU6VcvOj7shlv+nEWI1TuDiPiC5C68BVYyYMxWqWFiLTSfDgCj3P8JVA6Osruv/JVgGTP8geQ1B2OwF+dXsgDhVwgUYCH/0ox+FSVZJHUyq8aMKkSNkcTX95Cc/CdcMlldKn+CaomwO7+3J1rQTxI/ipcqKmFPcrnhTcM9fe+21lQ5SEqGiXJOSe+iXv/xl/tGPfjTEsTIOI3RxizrxtTMh5GPvvffukmxE+BbjKlZ5dTCM4075XddVb8SqSC1WZRRZu3ZtuHdUoSCLasMXTQlMp8NAq2YBbIpjzYoLptlFVquAEOS4NjsIUSZenX9+JjCfNq5xSIPKYvEcAw/ilfI6uJpUi+/OO+8McVNyV7Eo4npj9ex4O9NKcC1j5WExp9ApHsmq5lrGAyHBwD0AcU1JiLtG0bzllFNOqYwLWdGRyi7+zgSvFHMtAo2QEa4zYpOxnHJtaXETi9JqRfm7KyG1MRHa2wz+WqMYWpIL+a58b9VdZcuKEpsJJZJpJohTjUMB4s5XrHRwO5j+Qw1Ubkaslq0C9e6IbSXejoxSvsNnPvOZUDYHsaoBDmuAXJ3xQIlVlud///vfh9ASCpsTckA8ryz7xCthOSDeypjU0KVH17sy9onnpyzUpEmTgseBLGZV1IgFRNxFTo88d++99wYPA3VQsaDKg+Fugp0H4yIeKCzzWvzgfXv7298erPLEO2NpVLWWuFZ2d3VNN1bvtBnFqjwPwIIOizH3XValLjw5EollkmkWcNcqDACxmhUXTBaZ5B3H2n9wmTMBtmrlBeJc5Z4iu5nrhtaPWJ5AXU4YKIlrZQCK46M0qRM2gLWWepIf+chHQhIJkzeDN++PlYGJnMYFzZakZtoH4q5JVkGI6romZp/MZLwCJBQuXbo0WEJl2YpRgXOIywAR9nLJJZeEa5h7XTkCJEghhk3ngOWQRT+LH64BBBh1ud/3vvfl3/nOd0IYCJ6p2FIqYVr+vbutOzG7KXVPG21VFfJG0Jnthz/8YbgX426baBJXBjBdmDNnTrCkKhOvLFa5YC688MIkF3S7gdDDWtOqbU5xTTHJE1vH9YKLlFI83/rWt4IAYACWxUlWpmodT0BZ0bwnNYEJtscthrVV16K6nJC8hcvImE0FFzux1CwWFe7ENUWsKdnUeDz+7d/+rUsTDaxaZfEgj0IsDsjcx+JKeanCClRJhuEzqa1qOgcW4kOGDAnjFgKVxTdWdaqx0ICFawaBFlvkY3G5MREa/12LpP5YVpsB5gA8cNR8Z7Eob69qxnKfplVIpqmgZlu0kqmY47XCIfifwd70H6wsHGd6gLc6TMYITSZmtfklvOTjH/94CBn4j//4jxAOELfsk4sUygkAKmsCCN8ZM2aEQQwrFbF9xHXJC8C2zz77hL7pxnAtYtFU9jRjF6IUwUAMNrGAdGsjSx8By3UpD0BcY1hCQKJA1yuLKiytWE8/9alPhYUnEyqWWa5LrlEqA5jOAWs5FkFV12HxzmKbxDnGL1AyEeOaCvPHcajxor47K2tZvMblqVpVrMYeN+47FowkVXFfKaeGR4w7ieWRaUa4OFSGRVZVVQxY/+cQY2P6DzdqVsTEtRuIS9XM4/sxgGPBovuO2vyBBlEJVyxXCAjVntSmgR7IxiYz9qtf/Wr+jne8I7y32glqRa7FFUIWd27qVrimdixZsiRkD2+zzTbhXCt0JE5WouTTeeedFyxZhN8oBlDXUZy0El9j5RJTWHwQp9/85jdDySBEsOpbcm0jTt3itLNYuHBhWPhofGNjTiRMimslXmx314q0muAUGhO5Zol3JskVowahA7TYZXyURbZco7cVxar2lzmBLlvMHXjtaMOqMZ37jZyJxNLINCO4YyVStSmeVVYtgsFN/8HtzWCHtaddWbVqVRiAVBmAJCuyqd/1rneF9q6/+93vwgBfFhCxUJXLSzDA8TyDHFYyCmJjycDKizX2xBNPrLiUssI1y6CHyKFdJcleTALExqqWrEkLky4x0CQzMWkR60cSnq4bVS0h7o+wEAQC4oFuUEzsxEqr2L6uJX6Hcsxp2brFZ2OZJd70mGOOCd4PdW/j2uGaPffcc5t24jf14aKLLgpCSR4drkUWQzy/YsWK4L7WtaRrrTvB2J2rH7DwM34x95LYindKrvC4rBOLcPaHcRNrpD6vWumqVhKrwHfgeFKzm9qrLAb1vbFWY3RIp4pM00JcomIGY7HKxg3E78ThmP5DQkcnZQhTRxIxggDQtcTgjMWMzlokH9DuVXVe48EsZmPWBJVHwW1Lti0VCcjGZYFARi5xhRKzsReBrG3cUcRpL168OJTmMv1HpWouv/zycK2zgGGhJuuJMoARBExYJN+xoKAKBRZyWv1ifZEVNA4tAU1+5YVN+XesU1yDXBNYYLHQyzrLPnAvcv4pqeOSUp0F1R5YLGGhlzcRN//pp5+ef+973wtxzXEpMqGSft2h6zK+RkksovzZe97znnD9YUlkHCLmlQoBF198cbhOeV/GQjwFLJhYhLN4Q9CpJm9cOSAWrs0sVqHa/tGGddtttw0Cle/KwpH6s0XbeGM2hJhD3Liqf5ZFlQJk6cDVavrP448/HiZu4nU6DawKZM1iscCSxjWHcMCagWBh4XTFFVcEsYLYwYKmOq8bK+ESt7Hk/zWhyBVMWAJhBUxEX/va14KYRby8+c1vDoMkVlhCDbBoMJloAmPDLczEgiWEWEVc1Ex2nRR2gFUaa+hVV10Vjh2TC8dL44TiztiIeef88j+07H3LW94S3JssUJi0yQjGQg4SofECRUlOECc6lcWqrO7EB2It5bpBIHMd0SGKxQiigHPKz4xhWGmdDNV5cM3QKEeNGfC8sFA5/vjjg/VUltO4GL9eF3eP0njUHfwPHiRc+VyHjCtYTBlT+Jl7gWuQBC29Nwt1LbTiUCm47LLL8t133z3MGYyNCm+J74lmt6xCef/4fozHVIfh+ODdICQgKzxjjLEpNZFpcrA0cFNlxQWjiUiWCCwhpjYUsTlhBd3p3HLLLUHUMCCrvJAsoay6SerCbfvrX/86JHJhBYvLXcUZ3PGAGBfXruaeq7bxGmLSGCyx8pFggyUY6wZWYSwBbFhkuF8Q2lgCEN7ySnC/MAhzL2miUotBrMy4vZiAEL8UjsdzQY1OJjHEIKWUSCbTRvWF8sZAT7Ikkx4l53hErBFmQtUPQiQQ1lg22bAaEYOH8FaIj8RlVlicFQ+qex3RyXdkwyLEZMt7sNHnm4mXBDtKm5E0waKX2E4m3O5co/E5iGNKQSKB51gIaBJXjUZEKeeez5k/f37I7qflaVYsqrlm2GdENItBjoHipk3noZh6rmuuYa5bLJlcq2XraLVxoXzNxtZ9Wf25NvEC4CH60Ic+FD6He4cFEuMZMdDTpk0L1lVez/Woz2IBzaKcxRv3NCKX1qqxcMXSyj3FgprrnOteIS3a72YWqT3B8Xj3u99dGe/VKICxiOOYSAaZVoEVTtzhKismsqyYEJjsiE00/Qc3FJMrVjvTFQZj4lHVLlgrcB55DpGIhfbss88Ogo5JQG0v45jYvojVuBA876sJBniUeEJQ4S5kIqLINxMNExDC8corrwyWHMTcP//zP4eyNkyW7L/upTjkJq47GN97WSEelYWsrXyPVts08GuxKTGHdYnFARM3rslPf/rTQeASF4oA5vtgaSIsQrV0OQZ83zgmVLHE8QRe7Xj3RqzGBcQBFz7uUPaNpD32mQUBQiA+blwLCFO3LjW4kLVIRCxyveOx+cEPfhAWOiJOshO9EavAdcp9wKKZ+tFURtF1qRJWX/jCF0L1AD4zjnH9v+YR94Qxi3mWaxcLL/us/eU53ON4blTTmvuC+5AFIn9nzOkpFKEV0L3PeKPvXh7/GJMaKH1MK0JsZVYkWcUTniYJLizcuab/MNm3chOBRsMAh6jCpYvlQhY1BnEmDmIgDz300HzcuHHB0oHVD8ut3Paxm60c46iEne7cgBJTEmSKH9P/QZxxHosyCWFtiDGsJrIWMhlhQUHsSvTyiGBkY/9xX8cbtT8lKvlfNsJMeB+9H+9PrV+5D8vELs7YJV/N9V5+jY6FYvT0/ePY42rHmOf5fiRMMSFhUcYdi+se6y3nkQlMsfQIAWqbYil1wX0jmINYdBVWuDCO0sQE1zkLHe6B+D7sSYgqFlX3gcYJXddY88nYP/roo8M1Ks8P480nP/nJEF7EParrHWsr78dzVDRhsUoiIcKU6xovzYc//OHg2v/Zz34WPCUkgRK7LW8NXhcWjrwPGwsywmuIw5cQbnU4vniVuN8VgphFhrGUOsi0CEzsrBTlwlTGouqxYuXCBWdqA24ejjGJPqZvIM4QpogarCxYOeIYVCY14qI41lgv3vve9wbLHZPJ1VdfHVz/WEVlFYFynKTEliywErixMO2u0Hf8t41t3U2y3cXqxkK0LDh7SsKo9hndva7ae+h/mNyJa2VC5Rww8SImSJqaMGFCCKWgMgOLMhYZshSrJBBVI5i0CGOgAgli3pgYQmS4r1m8cD8j+PBaYMkkBCa+ZsqCtLuEpPjaBnlTqADA9YtgRCDyeQhIteQlKQ8Bq8L/wHjwi1/8Ip89e3YQnSQWZoWHA6GKEYimKrxO+6r7LS7zx/VPaBBzLffFb37zm8o+fuMb3wihRIQKsQCtlgTWSvC9GG8Zq2PLqh4ZExJLIdMq4KZgYpFlVe7HooBvuIlNbbj55pvD8SWe0dQeBCiDPBMB4ol4WMQrgz+iiWs5dq9j4cCKgSvxne98Z3DfffnLXw6xrMSZ4V4k6YhSNEwwsnQi2hRzGddHlFW1LEwleJl8ZPGNk8V6406PJ2KJ6XIbx2rIosRkiXsR9yaTByWiiMPD4oMF9N///d/z66+/PkzglN0hjpjkNGKviRFlbFBxfglRxggmeo4xySzEmGqSN2Zj4EFBkGaF4GOhQ5w0i9G77767co/p2o67RJUXWYqjLlv+AQ8H74eVE8ssMelcwyyiEKcnn3xy+BveDAlTXoPHgjh6RDSilsUw1z1imtchpEkolIdDizzGB95r0aJF4X7gvRlLWOjxfTQO0DGNcAHuI/4fgcuG5wErMpbjat6SVoPvS7UOtaqNGxUVY7ExvQO3BxeSkq50U2piZ1Xkotm1Q3GNJg2UwCKTl2x2JVNhodWjYj+VDEYGelFupUutV3VlQcxxDyF42RDLbFhJKET/7W9/OwjBn/zkJyH+lgkQ9x8bbv3uNoQlIQCIZJIzsAaRqIFbEYFJySbenwlTn0mMKiW9sNggJBHkcTKlJgktTFXSTh4Vrs04bpixgJhrrNXUvjWmr5DYqNJOXHOIRcQqiYJxi9zYVb8xL0Scca9QGB4RmiwyuR9U35R7leua2PJLL720SygAG0IR0ckiDm8Bhhzd70qcxEuDiIxB4PJ53KOUxtLCTveSQl7YDxI5WczpO2JV5Xm6smk/8D4wpuANUgx9KxIvton5ZzzVWMPGdcD5YGGcSvuYFoQBIyuKFcfJHkreYCKzC7t2MGhzTCmrYloDEg+xBs2cOTPE0uH6Y+KTF0J1jMtl4XQPZVFBcHXNUShOtU3Z/PJ6KL5c96aya2NLBe+tz+H9EeNYjwnpQcwyAZL0QMydMfUEayH3B0KP65ZrGgFIUiJCEgtknOgYx4OXQ2agJ7EKWE95bxZpGl+5T/idWqeIROLHlRAlVz3xr7ij1QpaFXNI7COJEm+KyuyxjxKPLHr5PDxlvC4rkpVZuFIhgM8jdpvvyfcldID7lfECUct+8L2xvnKvIoRVk5r/IV5W5fNasSpA2TNE5RWNiRoXNW6m0j2mRSEuSFnFcXvW2ApjF3btYOBkUHKNW2NMq0N4CaEgamO6fkoJ4SGU78MTwN8Vu1ktfhuqVZMQCqnhb7wPMegf+MAHQvmooUOHVkqykexE4xBCWxCaCg/gEfGHh4PkTBI11VCEuY0FHSKT98VKqiRL7ctPf/rTECLD6xDAWiiycMXYg8cDcYoIVrx7WVzjKeF4sKgkTImkSf6XeZX35HfEKiFjzLt4TWQxjo9TK1CuzsI5Y4Efl7BSq2XK/KXWP6YFwTVT7kYTuwqJszG1g+PJAI8ryRhjWgEsh4hT3PmqJEPN33/5l38J2fOEsqhMXFxsP06I6k6sxiJHrnBiPBGTxLUSoqIWprTtxcJJmApiME5I5GclU1FBBMuuKowQd0qc+ne/+93gpgZZTdlvLLVUCKCea9wJC8H10Y9+NIT2IC7LpdkUl444q2YJ5u/sK0KZ/eE4UeGA92d/ELsIVuLFCecph0O0CuXzyHcgWa4sVvm5sGYbs+lwI6u2nFyREq1aDZnagauWY82K2hhjmhHCYFhcK7YbVzXlnnCXY42URVECTluceFjNnV8GsUbYDYlJZOdjdWT+IZacMmfEeH7pS1+q1N/l/2UJJRnyhhtuCIJSfemJHcU9Tzw3FUIQmXqdBCRufayxdHDjO8avIwmTUALizUV3dZ1j0Srxq5haCXcMEySD4lnDMsz/UtoNCyt1j3kf4mr5fIR/qwlVER8jxDvfE08isfASq2pgQjWR1LrHtChkJSJKFQKgWDwlCDFY4f4wtYHAeo4ziT/GGJMaRKiMFOrqhqgguU9lnSQSibdEiMmKKnFarpJRTawi5ojtpCwaJecURqDSZ5S0omYvQi6uHczr2EiKItMf8cf/I6YVYsXrSOBSAX/FqpLASLUPKofwOer+xndkDP76178eEq4kaFXxQ/QkVnkkKRmLLR21iIuF+PUcJ5Iw2V9EMuIVKyPVSGRN5lhjYQXF2rYS5dJhiHWOh+LwY+tq5soApj+QwclNrMzouImAsjpZ6ZraQRgGgycDqTHGNALEER4ejBRxu953vOMdQWBQlUKWwu6sfNVc/YhDxIpqG6vUFDH7iF7iFfHkMc+oix1WRko+0a5ULnpBcuD3v//9YNFVi+GsMKK86U1vCm59ivWTFBULPD4X1z01mHkdSVgKdcNSiyWT+Q7RrdrKSviKKxKIuNubyk4huC+88MJgiVXlA44l34vvyHeShVHHnEUAFTd4PSEHjP88z2fTfhUjEd+Jv7eidRV0LNXR7phjjunS6l3xv0WimjF9hwFMyVYSq0rC4nfihkztIFaKgY4MUmOMqTUIIlzsCFRVtOARCyW1RdW8Ic7Q31hd4Go1ggEBiEjBrU+bZZKZ1DwCsYlIowzbypUrK+1G465pWB3f9773BcNIHJaGqMVySgIXIjYu/o8VlnrJJFNRMgprq7LRsVhi1aTOMKK5XMaqu8oDqluspCc+EwGKoMcaiyjlM2IRpvwPxnP+hqWUJC7Vacaqyt8QuTzPaxCpqjNLCATzL7+3at3V+JgCFnS+s7qTxYKV6y613jEtjtrQxUlXusi48LC+tkOLuGaB0i+sNCk3ZIwx/QVxdvDBB4fYT8btgQMH5gcddFAo3YT1FPGFKIoteEoYitsMV0ue0Wvk8ue9yLynJTKlmhBcquONe/79739/qEGM5TRuL8rn0ykKwUbdYqyOqlOKOKWNKa5y4k7l2mcfEJ287itf+UpI9KJsG9ZWPhNxSu1UXPsPPPBA+Jy4RXHcVriaWAWex3KKoKR5CPGvvL+Sj2OhGtcwVtmurCgpp5rm1IClpBX7gbGH+FpiWYkD5rVqNkB5Q94HoS+LbKuVsoqPKd+B73nkkUd2KWWlsn9ck6m1jmkDKNOhWo4Sq1lxE+qCIwjf1A6sCSwEyBo1xpjeQtIQZZ2yogYoP2PVJImIUkvK1ld74Y219yyL1bgbG+KUCgE00cDVriQs3OGUmML6SFy+YkAlMhFlJC4hTnHjI1aYS1ioI+B4HUlG+nzFyDIeqvYxcaeai6gUgJUTVzOln7AOY2WNM+o3dUNQ0llLVtJyvGU5u12NN7Ki3jLiE7FOzVnlfDCmU9oLSBbj/9VaFuH7ta99LRwjRDjHkKQvjrFigltJrEJ5kUOYG8egfAw5XoScJJQ5pl0gHiguTJ5FnX3YWLUTd2NqB10+GPwpZWKMMdW45pprKlZTRBGPFLen7ihlnRA7EqaAkItdy7HLuxplwcH74E5nXCKEAJGFAGGjHSnuecQV3dokankNrn6so7jE2U/EGK/lPQgJ4HX6PMVvAu9DEX0srHxG3J0KKywudb6Tiunz3RQj2l2YwsZCGfR/b33rWyvlq+LC9mWxKsHFI1ZkqhJw7AEBKmMPr+FcIcxgzJgxIZGM74qo5bNYSBBCQdUDjhMLgfg8tBLlY8v3POKII7pYV3UcizhkY/oPAwJiVXE4WSFU459dj7W2UHCagY7afMYYg5sYd6riMRFPCB0y6imDp7qjEIubasJMmfYSadWEGwIDN/hJJ52U77zzzsGKKVGM2KKeKS1E4w5pCEXmCyy51GClTmlWeOYQnIQE4J5HkPE6JWbJTc/rCBng84hzVRtgWgATYoA1N46trbbPCmUAhDD7z+diuSU+F/hfVQrg/7FqKqSBkAN9TxlqlDyVRYYa9g1LMKFbJIeR5BUvBhCehCfEne5IFANew2csWrQov+mmm8JncVzYB/aLfaXhQdzVqpXhO8lqXBarnF+us2QCx7QfBOdrtRlvKrzM4KIBwNQG3EkMlHSEMcZ0DrjMKReI50pteemE9IlPfCJYHHGLC4kvdW/amFiNQwG0UTsV1/2UKVOCNbOIJwyCGJGM+5q4VKyDstYCIgTXPeEGdHxigY0QQcx95CMfCa1FsYJiKVWdU6CcFJ9Hpygy9GWF5JHP47uTNCVLpYg/uyzAET20GsaKx+czLw0aNCjE6hISwTHEwoulFxDJvB+bhPPnPve5SvZ67FXEIENC2re+9a3Qxji2VKtyQgyxmp/5zGe6dInkfe+4446w8GB/yA3hXCBMEfZYhnnfK6+8MsyrhD20Q26I4qCJQS5bVxHtRfKVMbWDeKGsJFazws2hLEitXk1tIOje1QKMaW8QKlOnTg3iUMlJiBiy+BFIiD25sssdoWJXd+ze1/+W41MRDlgDKQtFpyiK1TPGyE2P6PzYxz4WrH7EiyoMAGhrSlcmRB2Z9ypDxcKaMk4U4kc0ysqKMEPM4S3CtT1z5szwOlkvMXLwurPOOitfvHhxsEjGyVAIcD6f50EiG8ssn4OIJv5VVjtEJYllvB9/R8QC70NZKBKwEI4U5UcsqzC/QhaILVU5L74b35OFQXzM465c3XWc4n2x2JJExedJjFPpgM+imQG/E86BBZjjz1iv+F7CBLAIt4NYVVIbCXacpywKr1BssNuwmpqD60LlT7Ksa8KV3B3UmTO1BQsBx90Y0/ogSGhhmhVucoQR4+bJJ58cRBQuYBXjB4khxIwsgb0RqxKquLfJSKdU3vDhw4NA4LMRxQijD37wg6HgfrlkEu5tMu/PO++8IPA0xuPixtJLdQEVwo9BnP70pz8NAozvRMymsugJI8Dqyt8VBhB/p/gY8RzfGXGKYMdSGwtK3pfvQwWAZcuWVd4rfh/eg+x+vSdiG8sm+4LI5m+yjiKe4xbkWI21b/Fx3phYRVzz/Lnnnlux1CqUAHGKmFXXLY4VgptqCMA5pxYsApcyV/o+rRi/CnHcM4uILBKrOo9YwhNJGtPuyJqaFaEAsWmfDReHqS3c2PSZjl2AxpjWAOEiy5LGTpKiqN+pvvDVxEhsJY07RMUlpPT6uOc9v+NKRggxbiBMlSiLq1xJSoqVZOP1WMBwwfM/8b6yWCZ+FAulPjeud8rPWAxx4/N5WSFKeB1hAlgR49akem3corQstlUXlbABQiKyoikAQu+yyy6rNCKIjxXvpbAI9guhy+9YSVkgAIsBQg3YP0IfeB2LA76fSjTyvTk/WJO1vz3VZq127hD7qgqgbHhiXYHYVSohcFyokCDrqo4FVlnC79jXarHFrUIcfsK1xfUQawaFSbgNq6kbuKzU8aosWLMiCF3dTExtYIBjEKXgtjGmeaGFKWIHQaIwKTLNiTmlDipCpmw1606sxtnqZbEqEHTEY+JWp3QVogARgHCkVihueKynfG7clYm4UxW8Z3+xVmLtQli/+93vDuEC9957b4jDjFuZIqIQWbwOYYUo4zOZF6h/ipik8HvcXUqlpXgOcQg9iVVZLinzxJxCIhLu+tiSrOPD61Uui0o2WPEIpUDkqqIAj4hUtW897LDDQkIXYA3Fc6gMfzUlQLizrxtrJNCdgMQaHM+P7APfh+PJtUHtVSzfWK6ZMxXyQBMErhnOTW8/q5lRKTLKdpXrrmZ/8dQaUx9wK2VFLbms6PEsqys3OwMlQe+mdjAokwDhsmHGNAeIN4SOSjSp7uipp56aX3zxxcEFz8Jd2ep6jEVjTyJE1kOVd0I8IQQRQrjwceUzBvO5jAvEuiJ2+FzEqECg0YSE7HpqolKKitcpXpUyVLwOF73iTYHPI/ufvxE/jyseYcpriRNlH/gbYpjPK7v3EWagElMIZ6ytFMwnVlUJS3Hyl8Qq74PFE7e4BL7Eo44ftTw/+9nP5qecckqwujL/sG/UrqazFdZgvjfxuAh5vhufgXWZEAyK/wNCkRrjKvKv+FZZcPsiVkmWU8KaxBnltxDuK1asCM9z7L7zne+Ev7Pg4DuzGCDEgYUAP7dq3VXQfnP9EXZBIp60Qtzyl/CMtIrGtDW4MbRqzYqMTgYAdRVhULNgrT0E4HODE/NkjGksZKoj9lQMnvGPTHqEm+qHxsgaGLvtqxWwj1EGPa/hPicuE8sU4k3WKT6b36nzyecqSUefiRuc56nByv8pHpP4TJKriB+lzSlof/g8kqt4HUlMCLis6MqENVAiEKEZ76uQ1VT7QFzr7Nmzg0cIoYt4Y45Q4hHHTOFNSqzSMUJkImje/va3V8IN+E5YPImZ5XtIWCLsCHsgcQxLcxmSrvhM4lYlNFXFQIKadrBxPVWOF+ENvWk0UA1ehzWX64NzpjmR64fXkFxENQAENMcFyzY/8/2ZWwnfoDyZrM+tSBzvyznk3HE8dJzjMmGJ5Yxpd1hNK4Myi1rNScDyMyteU1uIg2OhgJvPGFM/EDOINJXcQVRgdaPWKW5dhIQsiRKYsi4qflICVYI1ttaVhQ+CBXc2rnYy6BlfGVdxFZMYxOdiAVX5JeC9seThVsZaiDBUnVD2mVwCrHqIH5W6Ah5xr/N5hCmQBKVkKl7H59Gw5Ec/+lHFQgyKd41BqCIUVTeVsICsiHlFTBILS9UY9pPPpHQVgozvh/hUwpMEKwln7D+hCPxOaAK/M7cgMlkwEItKhQOIY2GVoBbH8xLqgDWYz2bfEeqcU0pGKUQB1zzjqoQU8ZRaBPQkWqvB5/JZiGrFw2rM5vvQNpbP4fOLmqOhPS1QKozkWhYVOs6tGAoQW6QluLmmtNiKy3tx7aXUMqZDUBB8fAHK6qAYqmp16Uzf4eZnIGShYIypDbj1d9hhhyCI1AcekUMsJIkiSuKJs8XLGeMSXLFYZfyL4zjVq57nEZnU56QyQFzmB2FMjVUEGxZPCVQJMp7DmsjrELOynvIeWE4pqI+Lmy0WOYgoLKeIboUD8FrCt7B2IpYwRPTU7UogKrESYnmVKGMjLpRjqRJU7LdKSik+kyQm6phmhTgmu5994/u95S1vCYIXVzjHj/3COnr33XeHfeM8lN3z1SzUstQiCpmTEKkKWaBtK/uKdZf/JTFN8aUIS44JjRBiwdrbpCclF3HdxHMiAp36tvwNwY2njOPBNac4WqBzGOeUhYJKe/XmfDQbcfMGHjn+HIO4Fq0EKwuWtErGdASsjhWDItGqPspsDEbEupraQiwZNz/lTowxmwZWLdzdCDzGLAQi7lmyyHG/Yy2Mk4BkIZUIja2kPYnV2P2PiFQiEEJYFkPiKhGfWEBpCqKSVRJLd911VyioTzLVjjvuWKlbivfq7LPPDu57rKSxxZWfiTudMWNGsLgiingNYgz3M6IWt/4DDzwQrKOxNbIniBOVixuhiuWTRFCEn1zrMXpPxacSt4kg4xjxGmq88n0IWwDiWhGSLBBAHf4IuYgXABsTq/pshDLHDIGucAXCFDj2nGvAeozwl5uaR6yt8fnvjViNFzCELvC5stbynaicgNjGmo0gJikNaznH8pJLLqkshnidKgP0VDmimYmPkZL08BhwHJTMpo1jnVrHmA4BN49WSnEvZYlXBptx48Ylvn3aDzJHsWATqG6M6R5iBhGECIGsCFUiUQlxRJ1LrIoSBbIG9bSVhYuel8sf0YGAJJGGbj6IRcZDWU5xz1O6iGShWATLcko4ABZH6psiMBlHsfq+7W1vCy5/BGwsYPg8apMS90gyFSEMWZF1zeuOP/74sLDl82LrJIJOW7mhQCzG+Zl4UsQG8aTXX399EHmKt4yz9NUkgNexT0qwUowpnqGvfe1rQTxi7UQo4v7G4krnLMQrBfWVdPX5z38+HDu1ma1mWa0mWPU3jgnHARc8ICQRg1hw+ZljTlwr3irVSEWQU3c1vhY2Jlbj2rcINGrOcu7Ydx4Zq+lqhcWUOqskVGFRxsrKeUbs8zqMO1i7f/CDH1QWQa1G+d7gmrj22mvD9SODVhzDauuqaRgMOqy0uSmzYjLgYtQAwPNuIFB7mNiwzGCpMcb8BQRfUYA8TP5k7yO0sGJh1Ys7BjGZSoBsTKhWEy6Invvuuy+/5ZZbghWU5CbGPsZABDLucbxQtO+UAATECaKWJBS6WjFGMqEr5pOEIEICeB2vUSwj4vKhhx4KopFQAuIclTOACOJ1n/zkJ8PrJHbKBfSx3FFBgHJViMoy2k9ZGGkWwGcgKuP2o7F1k9AGhB/drbCGKmkJ6xlxm4QhYI0lLhTRhuVz5cqVwaCBdZXPevOb3xy+B2EQnCMWErwPsapx/O/GxKo2xkjOPe5/WXqx8KprlQQpf1eTAKydCFoV/O9tGIBCNnhPrOQ0VFCIBN+J0l/8nYoFfAYhE/PmzQsCnWMmWJRwTnUeyt+p2S2t1RZzXLucW46FSl4qhIRrPaV+MR0Iq+asqBIgi0BscWUQLgfpm/5D/BjHF/emMZ0ILmole/KIRRGBRNwiYgyhElu/ygKku2QaWSBjEFkkDSG0ZDll3GP8I5Yfa9mnPvWpSpF5laDi/Xik9urHP/7x8DosrUzaWBcRTHF2u1z6CDSscFg3eV/+F7HDd+VnRC5iWIlJig9V8pIe2R/E6dFHHx1elxWlCNlvLKDqWR+/Vq/HjUuoBOg5RDpltRDUxF5iRUR4sUgguYkwBIlbWY6pn4qYJxyAY8v3Yvxi0Y14R0QzTyD6Jcoo5s/4xoJApag2pR4pQpj9wiqtMAvCQBD2EsAsGJi3lGzGOUHs8x1ja275s/Q3nS+OC+cPF3/RWrQy//G9+XyOCccc6y4WVaz8GBxkrWZ/OQZUJlDMb3kfWg0tTDgP6oLJpnuWvyUVL6bzYEDTCjUWq1pNcbFSG9DUFiwa3PgMuMa0O2SsM9nHVhriM3E3IiTjkkrd1TntzSYQEcR4YgFDZLIY535D7Ckpir8r8xwQFuwHMZjEZ2JpwwWcFVVUlGBEfKlEiV4HCCVEG7G13Ncqqo4YpEQgcbB8nupyqqMTr1c3JEQAVjrEEZ+HoOQ9ENS4uhFVJP0wXvO+HD/gfWQpRJDyGsImEFsIW16DxZr94r05DiREEWcqQaljLZGl90SUE7sLnBe5/6mfynfAMsz5lGjnNbw/4QE6PpsiVpVYReyqktyoE8t3og6trg++k6zBzFtqi9qbz2JBhJWb13BMFFKgqjlshGJw/Kghi2GBawCRjHWV///1r39dscyyL3F3SIVFlFvVtgLxYoWya7I0K68lSrgyprHggiMBKCuqBSiYOitCBBh4Dj744NT3UFuSFf28jWknGFOo3YlAkmWGGEjiHxE7CBu5pWNx2lNrU7mA9bOI635i5cJ9ySKccYvPxgqGOxvLF9ZMhKHamQKilYzyY445pkvzAO5LLLG477ESxklJvAdxmcSyEuOP6xyhw/fk84j7JD8AkSX3tMovyWqMCLrpppuC1ZYyUbxONVopEzRz5syQmY1rXR2geB2iGJc0309jM0JWIMT53rjPgePB9yF7nwQrRBbvoRarElTltrGy1pKBj2BRO1dgf3G9s1+40PnuCHzF1HLuWSAQ96mGCRsTkKoMwHtiYUdEUsmA51gcHH744UHAAgKb+GXNVcpW53gp9EDvyedTPotrg2uQZDfmO44RPxPSQbwyiwnCTjgPnAMaR+h9OIfEqrLAYkFDrDH7Jys+DQN4P46trs84PrjV0P1I+IoWXbJia6MTXDrVYjoWbkAsHypjFYcDZMXF6TjW+sDAzmTAit2YVgQXLBO5LJi49RFHuJYRZCRlIEIUP1lOduopY1z/LzElKJFEoXgsiFi1GKNUKeD0008PghkBq5JUEhAICrpXYSVVFjiCh/GN9+I+RGRqP/Q6Ep54HTVK+Tx5pBBtiBeK6/M/+izVco1FNt+BzHIErsIDEJwISkQTgppjBYpBZWyOKxuwqeEIgg33ON+bY4GIPumkk4LVFWHO53MMEJNYt0ElvWJxWi0ZKrawEtOKIFebboQ4hg2sj7wH8Z2IPOJqEeF8JnMJzyvMoTdiVfvF91BlBB1Hkq+4tljwAO/LuVYfe74jFlmEOBZqrLCcK45PVngJdW2Q5c/1w7nSYkcZ/cRI857UGyXMg2PNvmGh5vqmAgUbYpVrDPhMhC/vr/JnqvjQamEA5RAGFnoKA4g3jmda1WI6GgYHuUTiTStYBiBualNbSPZgICZ2zJhmh2L7TMzrh4wgFJiocRXjBv/FL35REUJMdrHLXPQkViVoYxADWApxe7O4Q0hkhQBBZJKxT2tMVQrgM/l8HnGLE3ZDy1ISS7Oi/TQu4GOPPTaInzheFXgdgpXXMVkj/pRMhYWN2qOIIepxAoKyvO8SX/F3A16P8KN5ABZRWeJkpasm5hB/tCBF0JLgwjG/9dZbw1jMvsrNj4DDQshYTYa7Qg4Q5ogr/gblUl3VqiXE5wPrMseN4y9rJSIQwS1xiMDjGCO2eR3nCQMIx6hch7Q7sarP5P2xqnJ+Y4su19z/Z+9enKS7qvLxd33/Aass/YqWVoEgBkoEFNBwJwEkAbmHOyRAkEsMBMIlQMJdEgJISML9Fm4JFzFclfuLEIKigUhSEAETpYBSKa3fV/+A+b2fQz/tene6Z3pmet7untlP1amZ6elzzj777HP2s9d61lruATc+Es0CmwDhUcmo4DPXa2wI1ENOQ/Bz3VDP56e2C05zvEg5LGhIP7Qv2RtIRdxH/0POkyfW+UNg4yVYN8tqvQ8pw8sSHW9r0l3qH8/c8thKx4GHHHOj8aCs5e2y+awHB+0NUrxh3VbjHfsbJmdEL65nljxEhKtULsxMbCFH0JKfWQSlbnE/Js0SksYiiKCMxjIlkySyx91NA1qBvJlckU9lR0NitJnljZ6UtTfWxdoO+4n2lw+1epRM1KyGrGyISZC0R5EUJACptapWwhrtpcCrWjEr+2df10/Li0gn72qqXSFjrgeBdl/sz42NwJIlOC6LphytAYsvMistVnK1VgLd3rO6xfpof/chfSBdk3vB4qgPWKW1CXl1DiTVosA55yGr6dOMJdcWvaT7KouNfLP+Fnylf5NOSt/4bsqJ09NGflGlDRkj9f7pa4n9VfDK/U7qslhtSS3cF9Zzf7MoX3755cP5yCTA/ULiEFi/Q5UkrBPaxQtrtD5JoGCyMIw11R0dy4PVYSWr+T1/G6xdx7o34GL0whSU0dGxDNAhskohKJ55zztyigAip9Iexb3bRrTPIqvT0BIjJFMyfmQU8UHKnJvHIemdEhSV8zi/9ipxnIh9JMomat3nSGLVydbrdFyufPshV86JnKobzxKJJEHcutFgagNSRpfJcsnqRxMarWIIWrVgMgR4fyLhcaknit/xWPVY7uhltT/R+lJBOQ+LIu0sC2clSu4Hi6t7hEyyuh5+jQ8kIxZuwTLeK/afdU+mkdVkE2A51DdIWlJzJTiJ1ZJeVHvJEEL+aX4tckJAtyKrNdMDuE7kkMQB3Hv3KcFMSQvmOqNblTkAHCcu/mzapN8dVztlRUBy9YufvANkGvS30Q87pmAxY8UYcO5I4liWHSP30mIBoddHNW3XuqEdAwi+sZUSwcm5qo94U5ZMVzo6BtxIWD0au/4MXO6/jsVD8IaJgKuto2OvgZQJCmLZT65JFispllidBCHVik8hQJDAoVk5LltyEgsXskPjyLXNqoVoIkOIg7RByCJLWvKKslaFBAnSMklK65TiAYiSIBwWUC7zuOhDrFJv/nnPe96Q2gkhtY+NJpPFlbvbtU5z3zoO4sqiSAsp/2hN/4cYI27afskll0zIWdJgIYmsnSQL/oc8C1J5+MMfPkklhRzpBwtVhCplRtOW9DF3NfLg/RtLIfmFaxEkBCrnIXbpB8UJ/J88YDsJ7EM0ETXndJ2kB/qTxEIfCDByndpt7LhXxohxZQHAAh+pRHtsCKkExxRclmAobY5hRBoxRAl5rZbpyAacW3Aa7W8s1M7L8qyf73KXuwzWdd9DogXVaTtZS7TC9kGKvXtdm33MgcaWvlbgxb1CSKX0cv/PPffcifzEosWzUxdr64pcg2tzT1IkoAa2jfO1d3QsH/RhSaGSLRZWv1tJ1sCHjsWBRYnbjyWmo2NRYAlDEk3YyXWKJMmRyTposRQLYg0YaQNyKnHdiqz6Hne0qGwkM/rREDxkmaWQ+zeR6pCUTlyvCIP3EVLrncTKhSDZzzUliCvtZo284IILBqLCChZCKBAHEUdw7BeylIIDVX+K+CLGCDXyEg8TC55zI8AJqkJSaRldk2p15FJJjYVosZIiOUgNomqyd0z6VS5mRBnSZ22e62rpouVEFHjBtBsZZiF2fgQN0XV8pD/gqnc+75NkGNgKua+Oqe36XluTu5WFUhYFbRK8xuKrslOsmazC+t3CpEovnD+SDcezAHCPQoBoiu1Lb4pIOp/7oO8R77Z0rv+zLiOW5qYTTzxxuEf63GeO6Z4odoCcRu/bzl0ZwxY9FjE1nZVr0G7jlfXb4sWixXs6pPR973vfMCcKQltXy2pQx6F7hYRbPMTCGm3wWDrY0bF8eMirhbXVs3qgpXfpWDy8ILwQvPw6OnYK6Y6415EB1ku/m8xNykm5M4t01mjx1lJa3fEhV0lBhHwhc0gdS2aCNBBj2QLoQ+lEIQTVxuUqiwBCHR03ksQCqcIU0pI2V1LNJcyqhnSzuHpHpXzmcccdNxCVeq2VmNpY1bTHuVkD9ZPzOgZiLIpfKdAEESWIJlbKBJSx3qb4gAAtkef62XFYDrUVcdc+QTtV01nRksm0ORkCWP0QqqSZUkTAMbns/d972/1GqpIJwXscOW7v8Szk/7k3iKnUVckUIPco97lFjs/833ygj1yT69SHAq60WxCcBYD+YOHO/OE+uxapvFiJo/v1035+0vq6lwgTUlg1xCzIbRJ744UlG6Fnyc5CZtqiqoXzsYSn0qM2WuA4hvHBiOCnRQeLs8WU47huiwZ9hBDP08erjvSbe1xTWWXr2tWOlQI3WXRBIavJHDAak9hUTelYLFgwYm3o6JgHUjAhCRY6fibbhKpEJtFqmQq2IqvTJtxYVwGpQMy4mkMcED7WLamIBMZw67eBPUhPtJ/eKdkXMbFYS5tD0gDBQ2boM7m8WWoTxY1Y2I+LVwlPCKnNedtNmxwnpVBNwI6B+CGgIU8JyqllX5N5ABFzznwuCEx7XLvrdmy61PQ5C69zcZdvN4F8co3aP9pVbaJ5lY8UQWWl9s52zljILVByznkS6LefsXS6RxbPOSY3vbKjkSiwfiNxgf87J8tnas67R6yTFixIdApD1FKzfkYrHBmBceD6uPOdJ1H+ZBOjxpDi3lVree3frcgqKBygrcZCqjxaSLlu5/Y8pTACYhzI2+u7UlytO1mtCzrX7TrrnJ9tvBDt6FgdWG2OxlVdkmuwJmY2aXTsDeioTOAmjI6OAHHh6jb5IyvJmcy6Q/dpgo11LS75qkeb5cIPZk22IYwmbFH7sSYiqAgKQsPl7NwJwuKuNunJm0kOYAGGzOYdwtWPhLHK2q+STIQFKbEf7STCk2APrkgWNB4emsNoOUN2Klp5Arh+AWVIl/6yf2QP4Pd8lmOwwqoExS2sz7UDiWExjL5XFS3WJ9IK5Mb7k7UR9A1izpq4HVQdKSJsy32gz0SskEDwP/fDIgKhZn3WBhZfiARiM9KaceK7yYHKamuR4ZwkCe47cufesn67LtdnPwFgWSyxbrMu07XaV5tqHye3bIL1WPNIMHgC3ONA2i/kX+BYxlbIfzx+ZAXaGFI97f5vtghDhJHiSAscW3ou7UVEPWOsqzIiGItSnYHzeVcn5iCSliqhWRe0HpevfOUrkywNU7aOjtVC3InZTDTRtfrpxd11rHsDEaesNWqpdxxcyHHoOUzEsmAaOSVNojR9dYJMZPIsi+Ks/wWbWYZYLtVLR/QQVnpAVkSEIyTBT+5ipZujI4xXBtFjjUykf9od0iKgiZ7VfskOYPwLpKFHlX81Kazaa4kF88tf/vKgi0RCq1W3BsCQSZiEEewaTJb+i0bTcbi98w60j0UCfSXiggRqp6pJ9qPJ5DIWQZ6E82QCcasjP64HsZvXspqUTH4KNvLOtSgJoeZO1yZuctfs/+QGeSfTh/pMloSa3mmzNGM1ol8Ql2tHGJPayhhIwC19bkrCspZboOi79GsIavq2Ruvrf5Z5XrosRBBBrvWcM2PKosDiQHst2BRtiBEl94Z1td7vWVuLeAxIUSIFSK5dVmkEmXTBNed3UheWZfsZJ8YBaUaOtx/IqntpLI+mkFXEfnmspKNjBkwyHl4vPS8VP1Pi0O9eFl6gHYuHCcgL1ATRcTDAYoi0CZDxbLGOsUJK9cQNHHd3UHN3bjZJ74asIhrSWaWyUKpFAUufgBT60WQZQNRY5BAn3gHWxrgXY1VDWh3r5JNPnkTJI3MS3/uM9TSkswZ31chw56UtFfyDQHgvJQemAC/ECaLFQzYEyrBAIpc5FhIsQ4A+ZqVGVFyHvrcwYDVFUO0f3axzJ4VT8rnSWiJVrJp0pn5PLk4LCwuNZz3rWZO+3gqxdAJCyr2ubUigTR8heIg+GCcs2GQByQfL6kj2UFM8xdLcFgYIiUaoWQ8Rc+8f99U1I8j6xLVFJiFjgxyr7p+2sMgFWciwelpIINxIe0qdMnbc9a53HaymyCt5BZLEa2D8u0ZtSsnVZEBwXouazD/mIscJ8ZwnW0V9ftw/VuDEa2Ruo112LNI4Y8uiicXf76zM9nWv3RNa5xD6eYPaVgmtthtojtO/ozFR9bvr9/wtmZp0dNwYXiTRiEVonUEca2u3AO4dvLz1dw9u239gobEY8QwhUQgN9yurGJ1mIt9bUjGNZO50mwXEAbTDs45oQEinjWv08CtiIElc69zTceunnb6vOpBgGTIG12kfRMok793BDVy9NCHEaQOipLQo8suqORpXqPJe4hbmknZupBPhRCS1iaY36bBuuOGGoZ+5mREp1ml9n6wDJAf6XqAYayTEVR2Sh9iEkCBprIq+6zPBPbE8Hzp0aDim/K7RaT7iEY8YrFIhYVvdg2oRdnxkLxHoCBsSiHyz6CKzrM/Oj5wmR6226G8LhlqCFUJMuMHl1UXK3ZPROG0hUomYIv6gb33OxV/zxyLxiI3rNVaSl1Y7paZKcQltp0MVhCVDg8VEqy+GkFNWevdff7kvjkFqoN0Wbq2m0hiKTGLesZ4+0Gba4wRuOb9xwXugjaQNMjBos3nQNekD++sf5xdkWFO8rRumLXCl/ap9HK33uPRxR8dqwgPsxVc1rF5Q+Z1LqmNvwHJlUtLfHesLFpzcx6SHYbmS1J6VJiQtwT6zLGBHg6yGpEmFZHI2oSe9jTZyqbsWhC8WxJpfFXlAMg6/OgYShWwgmLSJLJUhIrkGiC4xx0Fwkdl4dkyWrG5SFiGu9ktFqWh1ERaWTEQSObSPsqlSMmmLVFOOzyrLwsciiQQF2pWAnXYLSU+wlTYhOSGkyKnzcZFLMu/8rklf0pN6d5JJbBXwVO8tOL522R+pThAai6X+cC8QekTVOaNdRqCNMZkBaloynxtz7t+o6D8RVJZE1tlck+M6Fou3MWuB4LwQKzfJhOMYB86Twgs+E6mPSGdMzbpOm2v0nRSpcW+1V3+6DoTZ8fW9wLgYTWJdTXBcFhfzkNVsrhOhjnbV+emm/c/48bfz62u/WxxpB0KrHSQMIanpu3XCtP7yXLiXNUtQZDrjhWpHx2rCwxzLakhqdGl++n/H3sCL0QvbhNKxHjBp0fOllKgXveBE5IF8hsUrlsp5arjPS3IW2X5kjnXfZJ7za6vAEhanpAtiXeM6pkNEaqI7leZI1Djrag2CqemkqsWPZS3J2r1nHMP5JWWnB80xkBpEMBauyARssYhylVtEe25IDNwD+kJ9x0qmnYi4Z6u6QWtFqtrf9X/6g6tY+1xbpAbutfRHCJrzSSofCzOrsAC1JKffquJTbRNiiCw5ZqRXzsfS55gIJi2x/0v7lX5CYJHSV7ziFYOlLMGz+jaWYG5txCSLkWRFyAIF/HQPjF9GC1pS50dQ/S7YLpkCEHXfyQIsfTetL+uYco3O6zq1DSH0Xccgq0DEc79Vocq8kzK1LLv2nxZwNw3p3+hsI32IRtw1kN7oS2SUvAVoWJHlSEyQWeOItT6lefcD9MkjH/nISaUvz5H+0eddu9qx8uDKqwL3uvncwLYS7tgbsMSZoGKt6FgdmLglaE/qFws7ExtdHkug3JKp217dslsl29+uVXQR0E6bQB4aQZNw2nnFFVcM18a1ze3OfWwSQxi42ek/Eaq44IMawNMSw2hTuYpZa0Wds84mbRHCEMtZrj8BUiL2ERslOZFjhEp/+y7rHHe5yVX7BI6EnAr6Qi5pNKe1adY9yf+5351LydGQ7Qc/+MFD31x55ZVD3xx+ZQ5E0P+526OHhKRwCmlq72klq67TtSCbyGHuEc0qosS1jjzS2SKnZA9IHh1pcmVaXCCvLNbaFwttgtRq9TIbQs8S/fKXv3ywCCd6nvXV+CazcA2uRx/TAoMCD8bDfe9736Gva1nSWQuxOg4QUmPKIsX+zuHZQZIEU7mvxpZ3YY2nQJgrOd4K9TlyXlZSJHk0TtPkmMqyaoNFh7FCr6wwhO9ItxZoC4t/ZB77AfqZRyA67mTzSFCc9F1LpiMdHZsDUTJYvSSrlTXuk8NfGVapHXsDLwkvEFq9juXBpITwsN4Z9yynrC8Cb0xuosVjmZoVJbyZfnEZJDWISx4JEZVfJQksSZExIJfIOIslcrNVLtFpJCWWqKR5YumrhKPqZP1Ov+p8XPACj6I1FL2PLNLUuSesjUAC4F1lEeEeSakV6yqrJCuZ662kaZrFc9o9SMlTJAYQHlZhVkyEEGmTGQCQLjII70cEuyXudXxMI3X+pl1lzRXsgywjgq5XPyBqgp5cI1KO2Pk/ix+iHJlJOw6jtUQAaUVZwmmQXZf3umtwr5G0yCQEstl4B+h23Tf3IxZZz4D93NNKyttxUK+zZg9AqO3P3Ry5Ad0oCyuZg/bSrta0ijbkur1f8yDfteAZjclqCKvnGAl1vTxbxo1ngrU+XhFpxHyfTGA/kNU69izG9EMsrJFejPXnHR2rj2ieQlhDVpOPlU6tY+/AqsPS0nF04MVtQk/FIz+RHdYsli0u8SCTbp2MZxHSVYbAKmOsEgpk1fU/9KEPnURBV4vcZpP1NJmD3xEc6YxYtpCRfMfxWfOQQSmGYvkajbWwLL9c3EkL5fwIC/L0pS99aTinNrMq0rH6XOAQICCIlmNJlzSNrG4FVkTHNAaiaxV8ZTHJKuW83o0Ij2OKeveelLu1usdrLtRpfaQf9AsC7LotEkLykXDkPBpgwU2kFMgFIksrHUsp5JipNmVhZVGiHxBhZBspE2yG/CKo5B2s1trIwmu8GwMCs7TNfXCdJBGOLYeu4+U6NyP+7VhIblfBc7YEtbmvSDNtcICUa3PSKpqTLDy2u7jLd0kXkts3QVxIuGuWkcA1fvCDH5zknbUQyv7uCRKbv9cZ9Z7QgOvjkNUQVj9lL1kW/+jo2Ba8qEfj0mx5wENcUwO6Y+8QDZoXSsfiQfcosjyToZe2F7TSiya2SjQq2onyaGpNF4G0k6sT8UoFJdcqjU+e66r33K6mNvuxECIj+jcE2HFZ17i8kTPvlyyCSZHoM5GaSA0q0UTCLJRTDc73lGj1GULhOIhsouYRu1RnqpkM5r0GbUaSkEkwLpAqwWHydTqfgCbX5fikEt6PCHZc8NPc1nHRs6bSTMZrZSyy6iFlrgEJR+CQykhMaqR6cr5GyoFEC5yLrng0rgqlH9xn96PNQsHa6jt0q9GysmQjkyDVmPtELwvORyaiH+Z5N7UWVteuGppzyq1qIWhMkNWEEJIL0KkaG8kyQYIS6+o89zDn02fxgrifNb+4cag97q+/WXe1xfUbT+A+8TAwIBhrVa5ytL0ii0LV/3rnuRctYR3P/x0d64F73OMeR0RmVjmAn1aq55133pIfvf0LricuO/ehY3cwTk3AiM1ovAijvZMA3KSLfEDVWc4KjplmSVoXhDhw83IxIzIhd5EBCYSBlthsh+jFGska6JgmekCS9T0toJyttJnakiAciHu41ZJqA8LieCxgwDKG1LEa2k444YRJdLp7614jJbCda9AnrKuOSbuZClDyriJQrMJc/yyVIVzkCb6PWFXNKNCakvmwVHI7p5QuDaesICLxk7sWaWQRRqAEwtDGRtdrM5bt79oRW5H5CGUMCvqAtVCqKYFEm0kQQs6QxfQzmYFFC1KsL5E87yHX4P8sua5bftlojLcaC3XR4Zwsw8ZeslN412k/6376gFbVZ5FYIJDVq7EVkHzXQnPKEp4g4iyOyE4ii1GoYzQuf4tE60faXe3Th94bZCXOG/3qui1UA+3NeDKOPT+VrI7GCyf3ZIn0o6Nje0gk6mg8wWdAW1nHyipgomPvwBVoEoyFp2NzeBkLBMpkZ2MhY7kzAQsURDymRTKHqG51/Pr7Ok1WlawgcxaciLrJy+RO/oBQGWubRdBvdfzoJUXQe3dwIyMgzuWcSFgNSEv/V/IzzZXsf8gV8sECZx/EzjGRwFSECtllqeRS3ipCv0UsoqxqyGnSYHGvOxcNrUWO/0W76vjyjSYNFN0zCYT2Rh9qwYScinq/9tprJ65wiNRC2/WV4CfHEkRmH/A5C66UTrH8J88ttz+LdKLgp92btk8BOdNvdKQQDa4FRa7Z8+NeBgg8ksPanGufZWlsz5lIe/MJ13ss0xaPpA/gb31Evx+Pnv6jvc2ipiXhiBfSKVNHcu3G5e8Yo7GRxZylME4taGFD2MkmLDq0g+ch71zyCPuST7Rjct2e/3gZMt4SWFYlf0Uu0dGxdriRq8CWIIC4jTr2Blxk+p1OrePGQFxMNEn+bfLWZ0984hMH4pC8mNUtWyfsg4Jq9RTlbULmijZxI0Ki9ZGxRLrvhKyG9Ps+y6l3R9zMPhOkw1LFUhdSNUtLOo0YyKWK/CEmgLy4BlZKhEYQVKzFFieeGxa2Wglp3n5CSLlEWUtBe6UoQ+4QNcRRgJDFDyCg2hZ5iTalWpkUXRBXcghDlZskQp512+KBdReJcyyucWOYjtZ7N9pW+lz3TGqppP7aatFV/+f8FinIaaQbyBlShxw6lj71nVgipbKyOEDG2yIXW91HMBboZS3Es+gQIOc6WDf97Vysrwi7triP2pFyt0ilrAiqpuXZH43zy8a1PSrJ75M9we8WEtFiZ7yy1nt3aEes8pEe6BeLBiTYfcn1rCNZbdttzCHnIavpP5vFwtIYR0fHTkG3U0XYXsRW3Fn1chV17B1Mzl62Jr+DjliYjD3kgN6MZYTLEjk1AfpO9FmxxtQJaqsI9/2ISlZdu8pFiIBSqZAAGq7kGhy0E8uq/ncMmRTcJ+5U5+Xu9verX/3q4f8hsbOOO80a6F6zmkaPiGh4JyGt3kW0q9rAMoaEWVAnpdM8yHm42llLvdtE+htH+si55Fd1HgSLNQ/51x4R5CzHSGTO2Vrj069Il4UBlz2yyVppAcEqSDphX8SQTtc1GNeyALhnCFWAVHg/J2/uVuVB06exbFtUIGPakewMyClSzFqLtBkXNLpgP6muvP9jzc1930pCk/YJYkJWeToiD+DqT1lW7UBc3c9ocG0C71h+3YMUsIn7uhLVaWTVcbwvjMGMhZoPGIG2OHDf9AcLfizfZAHaov/bErDrgmlk1RgkUYnkr8apdOtqx9qCS82g9pLxYq35WJMWxKq1Y++Q9GKJAj4IEHWNoERvlhcp9+jVV189SSpeo9fj3qufTSOr6zbhLAquH9HwHCNeiSTXp8gSDavvxG04b1/VtE0JqqKpRIwT2c6Njei4rzX4aRqqFTIbN7L7z1WcykKCthAdZM/zgWiCdFDeSypszZOnE2K9AyTUuRKtjpCSSozG8gbp/DImRclrH9KYMqJ1QSQFlv/JactKmLYmpyiiJPgPYaAL1QZjWHEG51BcAZC1VBdEHB3PMegza+WvzVDJo3eJ47OwpRyuczom/avvWMBEfuGcSKaFSPKgVov6PBbWaF/1QRaWLMmkF4ihseI7tKKx+kV3GjLKg1JJaYrYWEAk0b3PkUwLWp4Dluu6YMjGkssg4LukJIi7cSu3r/608HE+1wubEfNVxrQ2u2+8o/o2OW6zdetqx9rCwLbqnlZEIFIBVq+OvQP9mL6u1pX9BC5PSetNZplwTIwCXFhOU2EphLRaiWrkcSWm7eS0mc7uoECfnH/++UMfx+XJAsr1LVVTSpRuh6zWPg1hvec97zncy1hXSQBikaz7bXa8agFDLBBeLnj/cw4kz3VY1BgvrMXaj5BLRO9zRGse2I9lFLkxDj1riHAqQpExIC4JVOH+P/PMM4fzirCOZVM7bVzLtKWxHGqn9yeXPgIqX2pIov0Q65pfFPHWXwiXPlSz3rmkIAN96rwIbKvH3uw+Qcg06YF3t3O6Ru1BpJMD9dChQwORcU7nc+0WNp5L/28LYmxFVu0j/ylyqZ/1mcWLNljYRHesHfoDUR6NUypOM5JU17++YiV1T1hCSTZqBaxpYxoxdi7SA1Z735fWi75Vn2ofC6T7Jmhvv5DVEHULhMgtEo/iflu4utZlco6Ojh3DyyppZ6LRqi8QAx6h7dg7qNCjr02m6w6Ek1WDtOTw8BrIkvEj0plGkVY3bul5XNGt67glpgedpAauHzFBclRmAv3M0mpsIVE7yQhQwUImUNM9FUGOhJj81Z5HKlIhaR4tbF2MyDRgrLAAI6HeSYgGguVcrJ+uDemIOxlxqecK0XVMaZoEi0qWzoOUYBwyAimwBCD5riAx7zsLxhochRRzM/MsOSfSd9xxxw3XqJ1IGSuh/RQ/aKtA1QAk1ycwi7U4xFeqK9eF3OpDBNxxubSTvUC7WHdj6ZxHo5sFgPboO/lqIydgVXRMRMZn2u99L+jK/y0I/E3SUZP/RzOc8RRyaxz4rrGW6oj6DPl/wAMekPyeG9ddd92kbVnwIFQve9nLhkVPJVUhqu6T90VK+FbPymao0hXfp4FNGjQWfL/rh8B5UpZ1t8/GslGv3T2j/U1/1sIMvQxrx9qDlsrKq13lRh/kZdSxd/CSQeq87NdNf8lSw8qUKlEIgihruU4li6+WmkSxzmvNaCOF120SOVoIWUXQECGkzuSurz3bgqHm0SNuBftyI7PSRWfKeu794Nxpy7y6VRuCijggL4naRiiRJ2Ti8OtpCMAB5Mr3uMkB+UHykEZlR1nhYsG3YEIyJY2v5Y8jDUhZWudGjEShG6uIlutxLn2GNPpbXlILMRbReAEiMUju1Cqd8B3EkbURGUPKQ2JZh1mTtR/x02bkL8dj9XQNiHct5rDZPavabWWFU/40lkgWbNpV3+HVcHw5ebOAkNvVdTpn9XK4P8isaHPZA1K6l7aWxVJwFomGa5XR4Y53vOPwHqgBayHuyZcaDS9JBksrlzwC6zzaF5Ls+/OWSK3jyrl4bSzeBJBpB62whVXaktykKTixzh6aeu2uzzt5NM6aEOtq0QR3dKw3uLe8ZKIjyqoslld/9+T2ewtBICw4qgGtKrgMoyczaSWZO9eaaNtgVhT6dioQdcwH/YlgcH/SkLLShxiodIS4SXIP28lxWZF9uK6RPAQYTI6CiowDBCRWylmT/zSreNJW0a4ibI7JCkRraLGMKHKhOzZS47s+o88zFg+/vgZronHI9VwT+ueaIymJBTJWTIGO3nvOh4gKqkLaWFidjzfA+Wg+k7y/HmuaLCVBV/mJ3LOu+q5nhJzAdSGL7hkXdYLX3LdU0nKt0a7Osv75WQltiB3dKjKZv2UG0EfkIhYFiiJ4p7tnoM/cV6RfEJr8nKl8pX+RUySbHtfiIRbPbMlEYWFAWiFYLpa+tgJYJZW1H+t15f/bsXZWCyNYAOhH8gMZRfR5Asli9Ubip43zdUOuPb+TprgPkQEkeG1c2bKjY71x8cUXHxGFaRU9GuuLksaFi6Fj70CXhQSyIK0CWCBMtohDFi1cl5dddtkw0SZArOpNZ7nqu+t+bxArqkmY3MKzKll6asEjW9yz0gSlqtVOyapzcaeb9EJMBcd5NwhSist2VhqkaWMAEbU/K1iCt5Al7eZxMO6QoOSNVRkuXh/ueIQrFaJqEFc9r77wGfJJHsEKmyIAAqyQXovFkNMUSnEM1kLPpOtlpZsW4NduIWrOy9LpntCT5j4hr3Si4HvJrJCFh+Ar1404buaqzrlanamIf89qqpuBRQzrojGBnCKgFpkB8u++Oq+Uce4JOYHUV/oe0Yv1tyWrIfHyvbovVUbQks5p/TXtutr/zTtGQ9oEwiHosktYxCSDQPqK1dsixTus9eKsG2q73SNj2kLDuLP4ig54XBK5o2P94eV9+MdgbYjeKz+jfbHC7thb6H8TaCbvowUBLgLrTFrJd8rCYiJloWD1qRYqWGcX2n6APo/F1PPL5UlPmITpWXCw3O02oMS9vvLKK4d3Al1gwB0sI0EsoC1BaYlK2h1ylghu6ZcAMbJgIzExFpFW14GU0pvSM7Yu4ljMkCTaSC5set3TTjttCLZxjJo/lQcj6blU4nJ++5GykE/EWskCi/QoHJDAp80C/nJNcX3rkwT5pLIX/ai20Nf6nv8h687vupBmBPkpT3nKETKD9jmrOuCaSgu55Iq3sAwUHEg6LUBevcv9bT/EmGUZgU2wWCL887xXiygghKy1JAI3velNh35F7tPmahWepUOftajZiY60HWMWPd6jPIf6kzQpfUV24DPvtZDw/fAOS79bfCQ1WFJTWkh4xy+ZZnR0LA6CHDzISX2BuHjRecHalkGkDhpYZLxgkhdxL0DagZxGAsJqxdUnzyTXIe1Xgle2k5C9Yzlwj9SK94xK2wOsaO4ta95uFxUhxsYMAsdSBc5lUpQZYFpKseqibYNlWIEFNLH0seghm75LY8mdLciJNXQ01qLSSOZ4+a5jIleqE8nhKQsCspsMAHSRkvqzNGozXaj26hv7S4XkGVAWGWE2yYtCTz/5PGm6ZhHU1rKalGF+CqzyLMtO4L2JBLpWhAIBtgBAJJwzlttUmELMZ3kmquUym2PrlywAaFR9hjSTa7Da2kdbkFX3EZkjT4jlt2rNq5XafRaoRPphgeKeaLdE+1ztiBBCCNMIaH5u5W3ZqSem3YcW2ThyjfrihnG5WRuLKuOLXLN1AbVf3m+IeoxMCZ5OifVl84uOjoXi1FNPnQRbeSH5GbKafHmkAx17B9YwriqTzCLAYmViSUUZxzaRi/AWdBI3Z7UQJeXLVvkXO5aL3BNWNfcVEYqOOLpSyfDnTao/DfZFhBASkz+Le8gXHStSwBJZtYORiEAi8eX/FJSVFFVImQUyy16S9vucrME+iUJ3/CzejEvkFBFEwEzCJmNaPcFZZAmCrxLokwIHCBnpgu+pZBViJgWTd5r2yUuJGLNUI3msb54Z5VOhBqxNI6/V2um77gPLqXYl9ZagK334lre8ZVIeFSG2QGRhFSiDQGtX7lmkGPm9WlbJIZBeixWBcI6ddzey//rXv37oHxHyIdHa4nOWZ/2tIIegOfc0aahkX6Cf1R8JrhKQ5X7r+1T1yvsi2Ow9cbTIKlh8JzNJNNHpQ4sZgV7VO7Ef3m25DkQ9HlE/4zH1TCyZXnR0LBYicxNs5UWe+tgsqx50n+2HtEurDv1sS8T0vPB9L+nRWNqR3JLRMGbyywu6dXFu5vLcDy/1ebEOk1gsjCbdaPQQnpAzY0BAUfKu7uSaQsQcA7lEXLiCnZOFFDFCZEIGTIrGmU3UPcLm/WEsh/iIuHeMBCUhSYKPtJcEBVnUTpZAk24CPckCkFwLZ+Sc5ZhlDzGMG37a+M3vXOTaIsWSv+n8nPNxj3vcUO/eO48mNsnkZbkQlKMtSaq/mRSgnst3ufwdn2UYsqjwGSsfdzzCjUADS7Hfow+OqzrHjLWU5dmCM32aXK7kDEg2Ispj4nM/Q1SzmMhCglzCu0GbaHpH43gF73raVQuL5zznOROybeE7S54Aq/LMvOpVrxquhdQjY9Um3657jNzDuuZcnYZ4HoyfVLVKPIpxYiwvj1V0dOwhktrKy91W87J6CGi8OvYWLN0mHJP0LJjgWG9YQWIFj2XFxMUtFktTrAkJPtnKtTlNg3gQsFP93NFGJUesc55LFra0W4SwAAvENeVRt6s3riTMcYwvGQeSyio5SRFLuUQFZDpnosojFWDdQypTpz4IcULCWBQd3/4sfsY94oTYGbfc0Y6pUlEN9INUxMpntd2xiiIuiBmynGAx2S60FYFF7JE7bbQfz4P3YHKzZpFXLXKtJrMSZefTXtauRM/LgOA+cdW79nvf+96TzASOw1KKQAr+ilZc38mGgDgnCHY0Dn6Vroq0wTOevkSK3Q+aUpbrtn3uXa7fd/VzFgAILNe/9sRV7vshzqtOVgWHIfss5SlQELIqx7W+JwGp7V12mxeBXIfAxEpWbfGMLpVQdHTsJbzsas62bIk0NJEkRU7H3iDlAuWHBNYB7k7BFHkJmcRMwNyM3/nOd+YmWZtpyQ4iSQ0q6VjlfqguYW5c0g7kULop14DAeEa5sut3t3N/K9FBnpAApEYWC6AHjbXQeETMtIN+TtBQCFQldRCLsDbSjErkDkgW0mqBzFIYLS7rnoUXWYBzcIHHmtuO982ui3YVmaFlRMKQXgtvBBxRdB3c5IDsII0ILEux8yGcm7mv01cJOJICyzHpQ5NuzPFIcxxPWqjoKMH/kcdIG/x0T1mUubcFuSEkrZWzEnNwLfZj3c1idRZCrLfzPljmM5HMAwi3frCIcV9Zgs1Nsi6QM0AyZ1go+b8xlTav+mJ0u0iwnUWXBWQIa+ZwpXaXyyg6OvYQVubRvdRtvFIbHgrC/o69BRemidvkxeXHWqVsqwk8VpK2NOF+eQkfbUzLq7mK/dkSSeB2l1MzExftqjHDlV5TMM1rOa6kBOkRhGccsuCSASBvrHui3elOq+sa2kAW/6eJ5Ko1qSKfCfZzbGMZgZR+iIfAhjA6j30RE9+XqxVCCue9Pypv2R+BT5+xQCODroelk5fCohApSjGBVJiKS31WP7WSACRb4Bd5g+O5DlZV13X55ZdPzo/Ayrzh2pEKQWIWBrSjvs/am/ZGElDP49zaLMUcbalxoG9jgZ4Hq05Wc93kE+ecc86Qlsu9NBdZlMmIwXKtr7QrCyL3HIElmWB5XQXCvVcwHjwjmaOzGcPj6mkdHfsXAhy8DKJjbYmrbTNXdcdiQH/KCmQCShBKtZRNS7i9n17Ee4FqcYS4qf1kteE54CIWhIPM+MlqwzIXLV8WCZU0Hs3213ufikxc9oBcIWKizllfXddO5B21nxBg1YJS0CJVnkIO0h5wPv3FemqBlYh9REo1I+RQUJX3i/EdciWKH7lAMpwHwdXPLKosuSLra/T9vJpqz43ynqyryW4ihRPySNeXJPeyFcRlLjWT9x6Na+QPWyEk3Tmkejr8Gh1kOTwl2kBXLn+tfrr22muHa9cnrLqsuClFm76v9ywZAPSV9krszwqbd7NjIyaqymUMzNs/yyKrNVDLteV5dI2eOxZqGSn002hsxXeNPhNnUeUl+k0fsuwLCOMhNJbch1jG9ytZdS2uPSQ+m7m7ZwXoOBDw8kjgVX0IUt7NC17wRMfewkta/kQav5asbsdi1nEkuF9FrEvhxVWI4I3GQWqjsUaw3ZAu3xNghExt5W7dC1SLJWJkTFjQCMDJZyxt2otstftth6xWFzcZwD3vec/huPTRENKOvHJD88ogCd4ZyZ9KvkLbmupQCSQS9OK79JmxQCJdCJw+FiAYD4JgLO+cWFe3Q1aBVMZ9FRWe/RFH1k0WaDlQkWfE0jUhSwm+mmVZrUj7kQZyiBe/+MXDuxPJls0AkH05VQG5sjBCwOl1nZvlub1XjsldLxE/l7Z3rveB966+ElDk2nIv3PuWzG/Hkn40yWr6NNpeuuSMr4wB14mcyviAnIaEpxgDy7L/CQDOc8vCzBOFuFrotMGG++09mWux8GrnaZvxvSQK0dFxdOGlaFJJ4uGs2kJkTUodewclJk1SUgnFMjSNpO63l/BuETJfLTgmOxY05DQWG+5tpAXRoqNkEZRMnKWSBcxPn5Fg0A4jGDW1GxJCP2efeq4Qyr3IqlCJpN+5SD2LqXfPsqmNUiXFRbqTcdKOMYQUAWW9QjDkO2U51ZfeEQglnaVIe9bLVJ3K+eLCTpQ7oqbvswhDvNwTem3Hspiwr+OwuHIDV6nGvEjUtLYiiY7pedJnyBCNrN+RTGDllORfH4YMRmZRj6ndIv+V9JQvVh/Y7Ids05a7Dppbn1ng1HRf7hVSJWjNQkh/yKhwxhlnDGnJkC79oW3IqoUVIu0a0q9tCrFZWT1m3fPtEtWcb9b7pz1P9Tzkd+0nJZPdwT1JEJm5RJAptz/iX/XC+sr7z8JdoJlxwzpuHjL+eBLogXlAkkt2Vvv243vSOGyJqj5VQGSpBKKj42hCqpfk9JtlaU3AQMfiwcpAl5iI/u1alg4i4po2aSFsAmoQy9F4UkRMpAQyKSZbQqvxhOTtrOm/EC0VgAS4IRopd8hNKTE9clUn6b0krCZ0Gj2TN4IT4mLSN25onHdLVgNjELG4/vrrh/OwsLKCIVhyr4acziJLVW/Loqb/EX7k1ufuE/2oBTLihpxGZmCx4F2jpOl2yGrOzX3u3WVhkfupYpU+YiFHnJCeVOdC/JEhqZz0cay82syiiTAll7E+YdmWk9qihSvbmGJxpu0djWu21yIr6Zcc20LAMR3Pph/oZlmTWbWn3bcqF6jH3Uuyupm+ux1faR9y+r73vW8oTEAKMhp7KjyHijtw67MA1opl9rVosLgk45BqyzOWPLukKfS6FpO1RGwKnBwN6/AqwTPZzsuerXGWjo6OgwNRprGwtvpVL1efe2F3LB6SeCNEUrG0ORQ7boxYrZBKBIL1xhiVS/KSSy4ZCCpiBTWR/DwEqAa4xIJD56oOuSpICYh7wQteMBDFtAdqhbDdTpghAolY57LmdpamxyTPuso1qupQtYht59ztd5FHzzsi53OBQMYlHWvynobwb0ZWq9aXlftBD3rQ8LtjkAw4JncuwppsF+4XMq6Pt9N3OTcSw91/+FU2tB8c23sL+RSkYmJ3H8H3WdsRWBH5iDm5RUpasrDLYoBo1UwFiVz3NxKMaDoHYtymg7LFGh8LMu2uhZB72gZYpX/bPq390fbzVgRtp5bVulVyCvqDN0JZ16Q6G42rk7H2ezYsOjyHuT4LFZkmWNPlEBY8hXBZCLgHPCD02fonOueqO6/yh4NGViNDMT6TajKez9HPFwYdHQcPLBEehFHR8UWnZltUJaaOIyHxN3cidLI6GyGfyBpyYzyyeLJ4JQ8jJKq8JpKvE13QTvxQJ+1Ybx3bpInAJcIcqXnNa14zITMJSloEYa0Tb4J2kFPkINZBk75nVNR+iNFuzivNlHM4rv5zzfSCyAh3NrRWt2nEoVpsaVf1kwwDsaxFpsFaTMcYq7ZqWs6FzG13/GsrIq8/RNyDa0BUvbcQV4RIVoK0kbXP9Xq/seydeOKJAzmVFilWxlxfreBlQ8SMOdZR52Q5nXX/6kICIjGYp2hHez/nIZyz2rEdslqD61iQVR8jo/Gs6S9zhGdAYQnWaSQ01dZCruQKdk/OO++8QUoReY17L8hNTlyu/Tw3OWdddNUMCQeZrNostFI6PZuxh+QvkzN0dCwNoi2Tf9VWc7OOxiQ20ckdiwMLjRd4mwGg439hEhQVLWiFZY5HAKrVNJbX+ve8k3/9rOoFoZJBEzMi5/lAxuRCreeq7dlJNoe2XY5BisMtLxWSfmDV8ywiTJnQdjNmWLQsAFiPXR/ywBqG0JFVRE4xL1nNd7j9LcYc3yZCngWTbMOYj37R/xAh9zWBM+mLtl+mtd1iAiHVJ/oGgSWhSB/RlDovlz3LX6zWOVd7z6AuYuhJyUBY8r0PHQt5cB3OX8fKZiQqC4u2H3dLVttxt12iWsc8Qm4hRqur/+J1Q1BZkfVFvp/IfYsRQVG0t/rEvGFffWRMWUQgsL5n380CGGdd27zXsZ+QsaLv9GfNje5392VpZKGjY9lIKcMkIo5OJi4IDwgrRMfiwNU7Gi8EDsJLeDtAKkxyJkJEgWUmejb9UoNjWsxreZrn8wokh+aQTo+VkCsZyYtmMoicYCf3s37P9Zv0H//4x08mMJWQkALW1UXURkeELQRYRLm7ua5pLRG8ENh5rVyxILKYaqNI+mQMYOFkRfUeEQQVHaioeRa4r3/9iiPIX1K7tX2Xaw5SaMA54153nlRAYjWO+5SOVfAV0lQ1y4F9BZux/ibITNuQdxICEe6RHMBW1uCdkMd572e1Pm513iAWTSCpkdOUZAPhj5HCWKBFfc973jOMsehyMw706Uc+8pEhwI2bejSucpaSoBaTslZsJ2Bunj47iODBiXU6ZLVsHR0HF17kycfaktW88L20OxYHL3kJx+kS22Crg/KSnjWxik5HGATRsJxFOxiL3zKgXayPqjyxsCJFIuVBuxK1HHI5b8qhoH7P8VjeEaekTNIPFpXKaiKWu5nUExjlGixWkdMEIznH2WefPdUiuJWlTnomhJ51NTIOQVfeLaQv3iPcwc7NEkqKxMIbkp9+nHZORPPQoUODxZMOkkUvi2z6SWmhkh4u2kfXRW/JSqgNiBbpAaIr/6fUYJ7BZEaxEDn55JOHCHeu/5QrdX59llRL27mfe0lW0z+z7g+4p3S80m251yHjdNHy57pOY6wGn+k/1j39QCvtfgqi0kcWM1K+CZTTlzUVX+uh6NgZLBSSSaOT1Y6OBl7GSRh++M9JneKkuvI3N1/HYkAfhvSIMoZWw3UQkAAd151AKRYxFi3ppXwWt/c0ErgMaIOUPCZ7bmKZBGJZDHHYjYXIdx0LYUCeVElK3tUHPvCBw7NYa6TPEylej50+T5UnxOWVr3zlZDHASuY5pxWu1Zbm1Q+K7LbIFUyY/kJIEVNkkqQiQTRvectbBsIp6X6soyFMng/kFAmlMY1LHulEsgVFKYVqvHBhGzNkBdpd22xzLJZ6BGA0nvQdC7HWp4ob0LpGr9pGytcME9Mss0cTzl3JfNoL2k9zrF8Eyyk4EOuca2c5lWBfxgf9nGfK7xZiPGgWQ/Sp3vfujVRb0ndZwBh37UJiGnk+KO+vvYL7Qh88jazKFrBMntDRsTLgthuNH4zkzUvqjOR846bo2D3UGTfBJtocDtLLPpbIpKpB3C2WEAh/1yjqdkJcFlIdiWaPO1R7JTSPBW637sxKQOTp9MyJyNYXrF0sXA996EMHYlLJ5HbIagiGfpdU3yLV3wgxIpPFQtqzHY2kfkCykXnHcw7lWJFi1lXyBmRK+3kVfFd2h1TMMgaQW0TJZj8ZBZRuVXIzVmHnSXCY+yEPpWO3elBb0iBJvYSYs87qyyrjqJbdVQ7sqfcQvIvJZGh1EfqxrnHof6Se/tlYhSwIAIFXyEHqKKRdXl1WV1ZoFliLAN8JOU8/5u9qUZ+2oOnYHSwekkpvVMiq9JPLYwcdHSsGLn8PipWdySK/R6Pkb26gjt1D/yIG0WIepJe9iS/XHdeXxRJ3sr9b4rEKZDX3x8TNxSq6HGlNhPQst+x2jp/9HRMBQ+ZijaRd9Qzqo6Tp2g5JqNYwQLQPP/JD6c9AWimkBWr2g3n7huWZdVWgE9CpJkAJiUI8AwFdtKeuyeI4nh2uZ1bVVKNq3ct1bIjQR+KlM5tVlrPtm1n/X5S7ft6+2sxqDZUcAjmEey+Vm2IFIaf6l6eGjEF/6LecJz8tCGh8WU71tXuUilFc+6zL83h42v7qRHVvwMPRklXzxRKpQUfH6kHOSQ+Kl5kXYpJcZ/Oyk6OwY3eQLNskw6IFB+mFn/RPAjoQGWOKtYelLO7ONr3NKvUPski3yqqHhIWcLYqs6h/WVQTO86gvnI8FjHU1ltXtyEdqX8biiAx7zlkenZOG8fArYOP0008fiGLSg83bfuTUvdTGkGwBao6p7Vz5cg3nmAi/lEfRitKzQqQhOX8lSIi8bANSfOl7C+hYEOclnLvZdou6aJhmDQb96HeBS9JCyX8tHVgIpuuW61S6qRtuuGG4f5Dcrp4r+m9VwyyoxkRneNakQWLxtuBCYrMoacfJPNexKlbn/QT9SMYxRbPayWpHxzRwU3s5emhIAZLeKnlZ1X3u2B244bg+k1fzoLzwk3JI3fnDQ21IVdVqBLdTxedoI21lxUIAWCNZp6L/3GmgVb1eVjREQyJ8VjXHPOusswb5SEqOVtf1PMevZNWmxCNNKetqxiD3MIundFOVxExDiHV1GQtgQlglf2cl567WZi5mk7AFsDy2JAGVhEKVN4DjSqHEm8Mq63lhSfReMnYEvYlUz3e3m/7oaJPVVvMZnW4WD8in/kP2WddYQC1o9RtNqYILyGlkC7mPFhnIqQpl0fFa6JAbKWMqYh+Bzb1Kf9W+3+7iJ/t2sroY1PtgrNc8q6NOVjs6NocXZgKtkt4qq/SUKtwsl17H1tCXdGLREh4EsJwJnmEVQ4xEFq8LWU07QhaQbuSA9Su6wLb9O5n87ccd7pm75pprhr+dS58JvopucyelS7OxrB1zzDGDhZiWU/udy6JUNH2uY7PjgfPbTwYAkfZx/SvRSY/KVS/QiVWU1Ta5VmU+oLusxA0ZU5iBxpTlNYFCjiEbAPKVbAzBtP5eRbIaRAOqz+WDFVQj2l4KrWh173Of+wy6U9ZV36+EXrCN4DTBVPo52VvIaVic5TtVECGLp8g5tpPloePoolrcBf7VnOfZZO9ZJh/o6FhpJBK5prdKLrjRWDPFjdexM9Cf6U9EpA1o2Y/wUmbJG411WNzC09Lx7Da6fi/bb6skkeWPi5vlE6aRgu0cOxtSZkEouCIEWUANNzCLI9nEdsbMtP407ljhROgDYiStU5L5Z796DISJ651G8tRTTx2ss9rpOMiToB1EMxOu9rrPjp20UNJJ0eUi+lIp0Z3yMlgEOzfPDQL39Kc/fUiVFIlIez3byVpwtIhqXXAE7h1yikQi7oKiEsiawDbk87rrrpvsF5JpcWc/ulNW/Lx3kVMWZvmbkf4QfudOMForM1jlILKDjDqWpXkrpVYnmzGyNCLQ0bEOkEjcRGRyQTCS3io5WZPqpGNnYDky6ccKsl8RCxxyY/ywloVwwTQysqoTaJ30EQoFAzwHCGYbFLab9ivBePgRHMiKseEnIsdVnPKmO9XJZqwhiaLzkRtue6TKOaQtqlDFSxYB1vAQLb9z69NBVi8LQkvLOxoTKxHmLSlChskOHMtYQGppdelXZQzYDpY9Vio5jSzCGPDulOtUPyEg+Yloct2TkkRr6n4mT63SuHSpCLs+9Mz46V6xuHLrp7JUe/2bPUfL7qeO2cgY4oFIydtRKYtuIbhEGtDRsT7w4kzu1SoNSPaArmPdGZAE/acCUK3UtF8mlDo5SuSeRQ593bqiTvoIBpJHU0knWN3SuyEGxgICiODIlQn+5i5mfbzqqqtuFIy2nXOFXEmh5ngCl8Ci6e53v/tAIBVoUE0s1lNWQJq6Sy+9dMjtScKRfYK4nxFrBJ5behpZClmWroe7u16Ln+skMUI0kcdDhw4NUgdaY9bT0dhyqj+VN/V/ZETf2yfPu3tJlyp4lVEghQ/kp+UWZm1LIFmkMu27ohPR9Ua9fzxuo2JVjVdzuQygo2ONIGdiXBS1TGvqRJvgvvvd7y77uV87eDlJ2xNrCYvjugddVdeWa0GKuHkjIeHizffW+ToB8brooosGYsKlHQ3ubjS3jmkckAF41ugUgUWSJVRkd4KcdqrvzXdF5XMxczkj34ima2H1FBxFK3r55ZdPgr1CKGNFDEEFVbcUTZBuywJWdPs0rWQ0t8m525L8VUOut/4tsE6lKNdqMR/Pk+h9BQxU1jLuXVM0zVz09IcyJSh/qo9GY1mMBRypB72v+9xmDmifqVXVdnfsHO7fwx72sCPIqud/HHDV0dExL5AMpKOS1WQKGI2rxLzkJS9Z9jO/dtB/dGvRni2rxOiikIk1k/xJJ500XGPIqujn/TDBWmBoPwshV52tapB3Q1YROm55RFK0d1z/j3/84weLq4XhIsiqQB/WVXIevxuDdJCIp3aEaLXWOwSV9AGRpqmULikuTMeiTU0S/jYaPgSuBv+sMll1n8lY5KhNMv7ko7aIt6gQLCmoLMULwD1D/kkllDEVQEVOQVpF24uwqjCF+EINakt/JMVUrejW9tl+eJY6fv6M5V3ZbnIZL3v+7+hYK9CUsbogrchpArA8UJEJiDLumB8mLBYzerRYnfYLuHkzLpLHd7+4Les1SBPkGuk7YackogbpGAs0zUjRDTfcMHzGwolc0srCbomL77OckjIcfryHwB2LiaqLBOTSud3PV73qVQNJcy+1jeYUEaOz9f/N2tVe66wgoKONZCbQ567dQoHrnhwCuXSd3nXyxorYl7GhPqf2RU4tVrju3R/eppANfaQgwjvf+c5hcTOLnG+mMa1jY1X6rWNx4N2IhCSSqWwCnpc993d0rCVYd1IwwEu8PlgmbRNqx/zQj6KxE4m9H2ASVX+8LmiQHNgPk2slD4gc8kZXupNKU9OOiQAhTdI9qTIVAokI0ZLCoqxsvi+fp+PaSAAECcGFF144yFWQr1RCsljlaWHhpcVMgFCkAtPc1dPa1JKvZYyLWJAtCFLNL0Tc2EXEkVOyBnlwg3hAaHil7hI8RRIQaZR8uTJGWODXIMrNLMmdrB5c8FB4tsyt8VxmThVgt+w5v6NjbcGVFbKausbJ/ZeUNqnU1LE5rKpT6We/wOQssCov38NDZgg4gf0yuSZgyEbf6RqRnpCKnRLHkD3EN3k1VR9CekSMe96kLsp3KomZ95w14ClFDVIFiSXQ82vRGcugVFMKCnBbI2BtNodoWGvJ1nlIdNtXixoX6RdIe6qM4Yorrtg455xzNo4//viJa997y3vt3HPPHazkN4yT8YP9kVpV12RMOPbYYyfk1HtP7lpBZZ///OcHiUQWF+mPEPndBuJtlpKqY/1gUSo7BO+GsVhldiGrFkzLnu87OtYaXs6iWKsMoG4mPJNqx9YQEYzY0Qvuh4kHWTA28sI1Plge99PkWgOOEDjk7j3vec8R/98JWa2b8eA5UhQgBEzqJwSSSzkEaCdktSU+gJA57gUXXDBEpCN1Ar4Qrhy7JVtt8M92LL6bWRN3A8eJRdNiUMUnUgWFKVKOFOm/853vvPG85z1v8AJw46fcq/0QTvuR6gimSoUpFmbBaVJuIfBIbSynyZGaNkxLzL9bK/isrWP9wFov+4PnGVoJQKyty57rOzrWHtyFyQcYd2/NFmBC+NVf/dUlvxLWA9yrtG3VnbqukMA+1c9ieeLOhv0yuYa4Rb8oqls5UPrF7ZaxrMesmzHAkue5ksOUJUZifv0qET9CtRMCNI3sxLWdwKoQsPy9VZL5nUSs75R0pa2tzMB5/9//+/+GogIi9uWmRfaNRe8pKblYiVMaFhBU+0tFpm/f/va3DwFQtXLfXe5yl0EmgJwmuC7tTzvqz7RlngpS20Enq/sHxpGk/1U2lwVRuy17nu/o2DegaauVrkJWq7a1Y3Mod6nfkBJIdPE66tJY5EbjxNb0fCZ7VixYt2uZhUpWbYJvpCLzewjQbq/T/iLNyUROOOGEyZhgpfbMpfrRbrIC7IY07fY4O0HkCxD3PE3p1772taGPvIMskpFNv3PZC4KDKp2gNU4hA+TUWE05YD/tR5qTYgXzLB7bPqkLz04uDzbc8+QopkcXOGUhlFy6cL/73e9GRLWnr+roWDB++7d/+wg5QIiqB85kK3Ch52PdHPSJUgHFmtUmgF8XSPUzGucLvNvd7rbx4Ac/eNADLorErQKqNRFYVU0+0SsuiqwC/a++lC6KRfAHP/jBYJGhaUXcDlKwjetjYeailzFBBpKxq3SY2FXXYjnl1vcchWxGsvHZz352CFSjE7Sfd5N9BZaxxl5//fWDlTX72JzPviQR87axJakdBxvxXkgTJ8+uBVELVv0pVtVOVjs6Fo13vetdw0M4GhOVBC6k4pXP5CbsmA6TJGtQctbGrbpuZIQGMDl4EQo5QhG5dbqGeVBd6NJAmVy4khd1ndFPyhQhMwDtKiBgniN9KiI9lY3WbZxMQ6ymSH8WN67vgx/84JB0n1VZujeLX4ti1lSTvH5Ppaj0gb+57o1B1v1UiUJQ5bB93eteN5R69dzNChCrVtLt5oRd5/vQsTvUMtp0zBaacu16L6p6Nw2e82kyAPmPlzuzd3TsQ3jxx5WW4BobEpZgLFaMjumgjWNh9eLKJLluJARZTXYIuiwR1shFrRe/H5BrQR7lGXXNb33rW48ISNoNanJ4wYpc/9/4xjcmdeVFpAsQ4tKu+tV17eMQU9fyuc99bqjYRescKZGfdKeCpb785S9PKmWl+htLqlyn/i8Iypg7/Eoa3kUCWeh/P/OZzwz3K4Fp0BYpaInpNLK6HW1wx8GDceKdwPAggNb8ZzxuhZaoGrsWVcue1zs69i1MpKOxhTWTjQc2uTe7jnU2WH6S/D2pb9aJtF522WXDfXe/n/KUpwzEw4tXeVIEYz9CChrX+MY3vnHy2SLIau47giVYkZU6EKUuWb0I/nUiqwlKS6CUMcFCzH2v4pPoaO8HQVHkI2Qkb3vb24YyppEBJAsDQsCq/YQnPGHoC/eARIIsiY5Y+VP3JnKJaYjLfrPgsPy/lopd5yDIjt0j4yEwzpTVlUmD/MlY5FGUq5j2fB7U0uYZyzwDy53NOzr2OUwYXJWjki3A6tIDnCpY3HAdR4K2V59dddVVE+vaOpFVmtXk3xW1jlQg4Kxk615SdhpCZlwvC2jc8ovQrNZ7/tSnPnVICcZCDfKvInSi3tvvrur4CNlkBf3Qhz40uOeTj9e7gtxBzsmPfOQjw/cTlAKIgXQ/rKNcqcaUd4kJ3U8WLLrTBLnVZ2ez/mgzGswiq5FlOGby0/acpwcPuccs+hZaimrwFibA2Fj0U+q57SIGnapZVV1uyVN5R8f+B71NSrRKI3P4o0kxgQRjiYLsOBLyQSIiP/vZz9ZOkyil2WisWZbUGugNWQZDVPYTEBckykJMSdJgEWQ1G5JEYuN5EUSkH4FsBFlLVPEyA3ui39W2WtPe7z4zqd/2tredJOIfja3vqkAJfGIhTiU3luIULXj/+98/ROfLLOGZcL0IrsAzCyNBUUkZVrdc/7z9QVvou85NWoEof+xjHxss2OQHUrAhxBZdH//4xwePQe5DAuvs1yP/1x+RpCCjef+CwhgytxiPAqWST5o34NChQ7s+b4qoVLJK/rPUSbyj46DAwx7NTh7GUXkgEVcTUceRMDG/4AUv2HGlomWB5W801gq65174UgT5vX2hr/q1zAsV25Aoet24uRdFViGETzEOz9INN9wwjItvfvObA3G7173uNUnNtJsqSS3R2u7+IadIGyunoDAE1b23SNVWlmAElOs/QVTazI3KCk9G8qhHPWrj1re+9WRBa8ErxZT9XHP2q+edloR/O9cSl+4111wzSA88f/raWPa7PJiyCMjY4ToQbovKRz/60UNu4dqWnq5q+VhE/7OeXnrppcOi0DhOdTf3XjaORSMZdGrqKoR4uTN4R8cBA+1OaozXh3I0trbWBMkdG0PEN8LHOh3X5jqkf0IaaJYz0UvSjrz47Ljjjpu4aGtarlW/pq3AbW1iId1IiqNFXE8WKdFcIlLIm/K1+hE5pWNFpug3o+dsCet2IthnFQDIcet3weeIJkujik+kHyxNnmftcs8FS336058erJc1TyrPgTKmgvBYMJPWx1ih+yOrYMUU2e/a0q644ZOSqm7Trr3tg/a6wDW88IUvHMgBMkoHK8MJrWwC3UA7eA9oEx/wgAcM12qsW1iyDNcyq/V5Xfcxvk7YbBxDHcf5PrDQyyzBeoqgGo+ea+NYrui9lq0lkLCWXe1VrDo6lgB6NFqzdvVoi/VVpG/Hz8GN/rCHPWxCgBYVab7XECgztghsvOlNbxom+PPOO28IgmGFrFrC/TCZy7PKXceKHFKzqGupE69+O+2004Z+tIixCJB3leXxmc985sR9Pi16fZ72tKVTW1KXMqYkCd/+9reHwCfEeTTOc0rqoTjCKaecMiTVhxBUbbOfdr/5zW/e+MM//MOJthk5pc0zbuznu1VO0Lal1Za217tZiql6jFh1tVE5VhYzJFme1iplmHVe5IYnIdWy8v4yDiIR2E+LsnVB7uusLA7+dn+Ms2uvvXZYbLLcu3+xZt7qVrca3llHE9PKl3ey2tGxJMiZWFeOIaupve1nL9P6c5hETYJIQarubCfX47KQUrzuK4uZdrsWJAv5RgRYBXdagWmVoO00jchWxV6QVSSIpQ855SpHHuHMM88cxolKTiGUOwnKi6WyneQjMXj5y18+WBIj3/G8uqfIOvIaTTISZ78QApbT29zmNgMZiHaddvWMM84Y9qvJ9yNlSHvSjvTFLOI477Vm33qtJ5100nAdgr5SinUa2W/PFbhmfW7Bom+4jqN1TOaAdR7j64Ys7Fpre6zyFhR3utOdJpZ84xFBVY53mUjKv8yPseoue87u6DjQSJqOEFVb0lpZXZo8OjYGIkS/V7Wrqz7hIVSIDFewSUCJQUBO3FsBNdUKtu4TOeIl4CftX/S1tJa5ZzzjGUP/kgUYF1zYPBY0lNLnzHKFz0LIFmRyN6l/9KMfHVzd9Jqx+CCcykVKNaXkayyH2d9+ApO4UbXHPvoHybXfe97znsFyyVug7ZVYz5t8f5pFfjuWy4w7eOc73zm8h/Qp1MCwzeQD7fnobQW6IeVIkIAy/bpfvAfrgozFWLaB94GkRP5dGSdY0M03t7jFLYZ31aog8riQVeOSTnrJU3VHR4cXe0tWsyW9VY3GPKjQD1yk0Oo9VxEIjyhvVjRtl7zexG1DWqQ1y0S+7mRVCinEkcU4mQ72gqxWAoXoIUTPfvazh/8jiNyZqjvJTcpytN0gH1H1LIsKOVggIb/Rncr7K4csCQdLadV6un7eEjl16fq4LfVH0mqpMCVZfyL9s2/NIzvLQroZZllU55U76DOSAxIE11srZsXqP+0+zNpyLfpDKiPHtUjr6a2OLtxHUhMufJXKLPTNMeYU3g9jeFUxGqd5rJ5Hi75lz9MdHR2HIZrWy6S6P9oHNiVIDypURjrcVRtf//rXJ8mot1v+8Wigkk+piBJkhUTFNczixPUm2TXrB2KAvKzbRI4waj9yxyKCOFZrzqJRCREIAPLMiI5P2iUWa2SV5UglJ7kea07QGvgjIEutclHNFo0p3nHzm998sKa+6EUvGoJNQkrj1refoCeWKkGT7iVSy/qqpOQrXvGKoU2pFDUr2X57ba2WdCv3+zQ3b8bRPBC0lQUxzWK7YNrOWGzbq99kOJE5gHxn3Rdkq4bqBfBe4U0QDHfyyScPYzJFaKQaY8lfF6RMdZXGeaaXPEV3dHQEIoUrWW2Jq4nUS+ggg6XrJje5yaQiz6qS1epiTfANMnPhhRdOLI/Pec5zBkL1+c9/fvh7HSdy94A1U5ojE+MFF1wwIU97gUraoiE1HliOEGcbq2cyBNC1muzuec97DgFNovX1N3KKWOY581y5T3LE3jBOiZUcp85j0SGjg0h5RNYxWcy5UyX1f+UrX7nxj//4j5OSp7GcTitfupXVtCWoiB7CTe7gHPJc0rjS7oZ8J1F/FgrzemKQG+NSP7D67nYM1n21Kdp8UoluWV0s3H/6bBZ/8Q3eJZ5BchOL4HWF8Tgap3YcjdM7Lndm7ujomAqEzCSbnKzZPMQ+Z8U5yKD/VEKypihaNdQJ+ROf+MRw31gJEKRYABFuxAfZQkZ8nyVuNzlCjzaQQzrVSAAsuPaSrEKIatKYcc0bE7SgkQgkMT1yxx09Gpc8Ho0LNWQ74YQTBotUFhYhm2B8ffjDHx4i9t2/VObxXJJ3fOMb3xgInu/F4tsGsmy2zdKCgvYjp6LzEeJo27OloMCv/dqvDdcvGr+SxARIbdWPSL7jIN6LtOznOPpHv7OAJ5NCt7BujbrY9bsxqf/ogUlKxhrO4b6ZD4wDz966g4cxqRybraOjYxVx05vedGKNi5uualgFXtHXHUQoM8l6IAn5qpPVWLhUKMv9k4sSwTFx//CHPxyIHrIVd3Ob1L4eb9UsU/SdrstkaayyQE7TOS4SmciTyxP5Z9H1TIhuZllNxoi4SkP+WCS55//5n/95kjEgBErA02tf+9ohJyoy4HgWjnSXAo8OHTo0jDkLipZkVsvpdsjqNHc/8qxCV0ozs5zJeen82i7LBOmCNF2x8pKYWDQoMjBNXpCf9X8qjiVdHtnEIvMX5zj6d1zXfVLh6iCS1e1eZ/rO8ySXLR20FH4yLXjeLHrjkdkvyKKy3Vz3Eqfijo6OrcBikpQicdWxUsRNYpJ53etet+x3zFKQgJdVzbla24NUSfruXsZChnQgrDauPJOQnIYS6seKUq9tVhDNMq+bbtOiwXhEqkw2SSO1l0h/RLcc0kmXh1xqR9KcQRYzIdF+6mPEFTkVvEEGkGfqlre85cZTn/rUIUKeyz1yk5y7BkZNqxbVZnjYiqzGIutv6a2MBVpP18Bi2lqp65iwryTtZ5111kA8EWyBfIhhTX1V98vm+hFdVmNu5EVaPbO/Y9KY69tkaJhVYWu/oN6baRkpItvw7MeSn+dGYBpphncbDbVny5i0eJJdYj/1E/Bc8BzUwji13KqfYjWWNwt3dHTMBS96Lj8kFdlJ3rkQVz9/7/d+b9nvnKMOwS1e4jRxq4w6QdGoZqGhbCHNWaxZV1xxxUA0TFC1bGWOsVkJzWXARCt3bDJYGIsXXXTRUTt/JXmxrutjgRjIpvYg/295y1uGMrc0k4jn5ZdfvvHiF794CPpJxTgZBVgyzz777MEyGXIYHWjt73lc+tOs4LO2Kh143/veN7RJu7UXidnMa9ASIFH3ZAOu3b0hBajpuNpzs8x5hly/MRl5yqLHV6QAX/ziFzctB7ufUDXL0/o0CyZWeuMSQTUm40lD4FhTSYj2I2SeMPZqEFUy4YzG2QD0g4XUkqfgjo6OecEt7OWVF1nNP8d9zJokVc5BAwvUscceO5mMVxF1gqJRRUZHY/2koCTWv7iy//qv/3qwcJGAsLa2WsiWOB3tSb517UbHmYozLK1H615U4ti64EW48zjIb8oCH62pNnpePEvc58qfIrIIQyV0VSvYXvt2UkzNQ1YjZ2B11EbBWsgdormV7rclvflM0YLkz6QpjtWuPTfNrbF4+umnD3rfr371q5P2LIpEOrcx7to++clPTkrmbqbdXWdU630rCwEWbxIUz7oiEtz53uk8E9zdAvX2Kz7wgQ8Mz1+Nx5hFVj2r9Li8BsudfTs6OrYNFiMPepslgMU1xIFF5iDhcLcMrtN1gEkLoRuNtVjum7ycSV0FAoJMWv7HRV3J37L1uSZcpUKlZrJwQkAy/lj0/uu//uuotqclj7GuZvOZNiEHcpzKBIA8RdO6VSBbSOBOgqXmhX0FzbjntLEJDItVdzt9YTOWLIqkoWKpVzY1Cd/bNt5www0DcVfYAHmQhqu2axFkUn8jHMgHre20xdZ+IqtQFzsWHe6lscdSioCxKEYStOqeod3CotC1xqWf90XSMbZbyKrtC1/4QieqHR3rCgm8vfiTDzKl6bId/spgsTsooPFC4lMdqmoGVw0hmtyv41rXA+mTRilpmAC5EBWLDN7rXvcaUialFOdm2OtJ/2c/+9nGfe9736HdrNqj8aTCjRyiutfBVRWttTMW1mqFrpauFluRsWnyi63I6jRr7Kx7Yj9kjnfAc3zxxRdPMhy05Unn7YtonZEkmnfHZdGq36nnV1rT8/O4xz1usHp997vfPaJvdktWjWnpwIyT73//+0eM4VUlq5uNh63uh37nJUFCZcfg2lcAxHPumc+92K/QNzTg3g/Jlxp3PpJarajTNvtZ1Cxxiu3o6FgUuIg92Ek2PxqL0bMqTVLzgwIvwoc85CETd2cskKs0AbYQEGPBYQLz04RuIo8l1ST/mte8Zvg/V7Yk82050KAGxixSb5j9WSJZx5RpJDmRdHxcq3sYa+ecc84RhO5oo5LW6nJt/78ZmcznSV7fWjXzdy0OMC2YLG1I8Mwswpf0WEiN55jFLcR42vXNi5xPO1nBRfmrlDZNj+r3V7/61cPzw4qFKFgkRUe927GkDcYOWYt3E0vuKj+T0FrTa3tbjXTSpwGPludVKjT96Zn2k2VbYNR+h4ItrPStaz8/Uz68lhNPERzvEVW1ZLdZ6sTa0dGxN4i7uK5Mk0vSBHhQdKxecq5d8Ewm6lUkq5n0TeDaKdDHi5tFy4vb34KuKlFCEpP26phjjhnq1LMm1wjyuH8XTVbpHbnQzz///MHKi3Qg1dqaCVmgWFJtLctC1mpA2zbMS1aTmzTR/65LOjEWyj/5kz8ZgrBkGlBg4KSTTtp4/etfv/GZz3xmyJEL6f+aNmsWWc3vyKRnOEGSu5V5tBpWJWe9C+QlbtuCaMk2gGSw4NNLJsPIbseSsaP/ELXkh07qqlXGVmTVPXUdgqJocKU0kxHD+4eUQlo9wVKrrKNfFDwXWbTGUOJeh6xmqwVuMk/5ngwcUrIteRrt6Og4GuBmqhbWrF6jCxqNU8bsd0huLtcnOQDCt2qobupMgH6qqmSSQxgQQrkyU0kIECgTPykAYpOAOjpd3wshqgRlJ8jkGmsRQiyHKmubCUm7uIhZ7Lk1jTOaSBrbBIKFLC4TuyXM9J76WxqscSTycG8QdeOLy/xmN7vZkEpIv0TOIeBMHldIKq3NyGpIj/09r6L3nXcRaHW8rFYsfkHuEzLp3knY7xr+8i//ciDlrLyCz+rY2kmfSs+W4Duu4XVAtdAHFh9IPY+WlGaewRAuBT1IKQ4KLE5HxZs3I4H/5Lmp5NRndNnyAy9hquzo6Fg2WOQSPVlLtSKxNn8T9+93IFZPfvKTb/T5Kmjiqos6bUnEtxKsIT2IqAhhFk1koiZSt79AjeQE9eJHnFhb/T+BWju51uyjdCpJBSJmM34ULhBhjyxHq2oCct4QrErAl4nd3GvX4lpF5EdnyE1Pq6tf/T8kz73j1kbgjz/++ElVKX0Xzehmuk+/I8axNj384Q8fPkup1kVIOHJuBNR9pCvOcTOe8rfMAa5XAKCFiXfJH/zBHwyFA3bipWB5NH4c07tJarZV9HbMgntIOy5nLXKq/7xT3WPP3zwVwvYDvJ8s0lKMIP1QA6FmbXHx+2ksLWVy7OjoWC3QpyXgalTy1I3GxMLvyMZ+hkAlk+PVV189/J2Ak1Ugq62L2s9YrhBSxE+gEou4yZ1V4pRTThksnK6BljLBKX4/dOjQxmmnnTZULmK9kkSePu7pT3/6YBFNdbP0QchJ1VwiXcgptyWSxWoYtx7pgShx3+FKRoojMfHzvPPOm6TdqlaoZffzTpA2I56kFiyqL33pS4eUVltZFrMAkZ+VS3g0zqFLPpCiDtOgX3k83G8E6O53v/vCCyqErNJSGiOpblVJtPFAzyqNFRIm/6UxRyONoCCxL3rRi4bFStrXanrruEa2/+zP/mwYy1mAsUJHGrHs8VEDGSOF8Hc0vgoxSOPFGh2PFW+CFGcHBfS3nn8k3fXHOp6AqbpFkzoaZzfJdyx2BO0tYy7s6OhYAyAtqXaVLXqq5JtkKdqvYJVE2uKaTvDRsglrq/0LaUi9dPjBD36w8aAHPWhiIR+NJ3pkgxUOagL8RI7LLsC6boJBNqMVMw6QTESIzlIZUUFS9JGOm+o4zsXN/cQnPnFIok+DaQJniRMIJver7xlDLL+XXnrp0HaWxmWTj0UgllCWaoRNDkz9HOvovGPHPhLf63N9poZ7gpVaOK7oeP2q7507lttFIWPMQsi9R6Dr51nAIJI2VntWNEST/lve1fvc5z4D6bR44u5G5hQqIUExPmzGrVRZUl+5bsTm9re//TC+6Op5CVYFWUB4PxjnxjIJhwVGItYFpFmoLVvScjTxrW99a9DbjsYegixMs9Xc3lWHGve+fiMLUm3q8Lj/P0ucAjs6OtYF97///Y9IZ1XzsYacsIztV5h0LrnkkknOytb9vgqo2rhYe6J1VAtcQvsEMpkQWFAFNKgVHstQBaJkAkY6WEvf/e53D0nH6RG5mJEVhFUgzQMe8IBBQyiQRtUk7mxtSAJ5FiafI12j8UQ0GhNnUeOQaPd1RXWH63OE3iTNgpb/7SQ5fiyVij/oNxWIZuXHZVF3b+lV/aQZXeQYjSX9U5/61HBtNJdBa13NmOKVEESGrDzmMY8ZrLHKsiKqrKw1ZVm7GS/G2LOf/ezB0u/7tL/LePZqZorIK4xziwmWYhp3bfZ8aSeNbvLRHhTwmCCYsY62kfzxzI0KQc13zCORRFgoL2mq6+joWHfI55fqPVXHahIKYWVB2I8w2bpWwVaJVF91slpT4SRhPS2k+8Waydo6Gk8crJ3Rkfp+jcRvt5Axx0zGgJw/BCpEBUkVvZ3oZueMi49F1vksACDu/1Xr1+0gelvpm5DFF7zgBcPfsYZuJxK+9nfSUpEUsPTHCl6RtE76mOWcq5kLflHWvBzHPbJo4dJNLuL8vw3EsiWJvXy6IaYWNj/60Y8mUpRYI31HUQtZEWhdySgQP/u4bsF3yxgj2hntNuspKylymlRJnieaZB6Jg4Z73OMek8XnqBDRWflPa0R/3gX6b2yF7ejo6FgMaonWmusu7htuuv0IL1hJuUPQli0DaNG6YtstWltaQlbR0VgHNhoHLLiPyJC8mJJoJ5F8zQHZbrUfIj9ATFj0EGOT0Gic9mw0dv0ZJwhsjfTfLL3Pbvti0djqvutfY4WFSTBRO152QlZz76666qrhXrFswzRNKh25xYEFiH5PUv7NzjMPcs/dX8GVrGA1+G4aWa33EpHXFsFWxhoJCKmCYwnYYpVHsv2OuLCq+o5x87SnPW2Inm+rhM2Lqu/eyXNLwqDKGklD3nPIKU37QYN+tHh370YNQR1tg6wiuPpvObNYR0fHgQBXDeKRylfZYnH1Qjdp7ycIMkIU6PBSunKVyCq0wS6bbfKtsvzRDkaP6h4iIaOxtUNQCBc/q9fLXvayQQogmp2V/f3vf/+w0ZTRptIiJqAq8pBonR2PDIEcYVYJ1VlR7jtBCF6qL0GCyRAswWIIM73kBRdcMCQg/+xnPzu0zfdnySKmJeVvI/L1VxK4s3S2GuftXF/73UTiS29U+7ES2ze96U3Ducly3D/3g4yjWnfr8WYtEtrMA74nQAxxM2a0oQbXTbPAzyKV3Oc0qQLIMmYyTow/1lQE9eMf//hgva0pu3YyRrJYm7bICqJJZwm22CJ3oZNN3Xk/P/zhD899zv0EwZcsqBa3bc7TWVtkADXVFNkPWciSp6+Ojo6DBJqzSlirlvXwv4cXvKTg+wmsxqyPJu24r1cJLVGYtZm4WamQKYEtgqAEYkVTFg1Z3HSxmqRIRFuHO8ETsdDWymcsUoigc22mSd0JmdvsWCGqyZJAkqAAAfctIh4rj/Ym8bjPWI1oJOWhrZbZkN9pxCwwLrjHk9otUeGb7bPVdbTfZZ3UtxYItX3Vwk0CYJzKDuCaBFwJvtopWc1GO4tc6iu62GpVnUZWp7W/HQPpV32HgMd6WqUoVSKyaLJqXAqAo5MUSJnFmvEviv/HP/7x3OfZT6ANNoaiKa1BtvMSVs8CSz+d8vJmqo6OjgMPFqnR+MUe4hLSGgLDurOf4Bql0lnlvIiz9KbZMnnHQpzJW7AVS+OjHvWojd///d8f3J6ViKakYVtJZjR2/7G8sKDKIiBVEV1iMK0+/V5ZpnONNpkqPv3pT09yvNJVJ0uBKHT5OxFTY1mCdpOr6HXXzYrJ9R4SuFXOUlb36Pfs2wZU7ZaMJ/G/HJNkBm3Sf8fVz5dddtnQfvrP9773vYMV1EbzGUtzdLCziGWKEIDzIKpkMKPxQlTxiey/2TYNIaIhy7X9rZSlJdTbcednX+3P9VpAIO6CxKRyQ6iS7su9Z5FuS+MeFAiYq3EJWdCNRjfWo05z8+tHC0HvDsFWy5qXOjo6OqbCiwoRiH7Vi9+E5vfkR9wv4J5EFJL6CRZpFVwE5iUQJvFkOAjiLq/fYaEjg5ArlNWxbkifwBL7teVakR3HRxRqydq97KscF/EG+s7DQ3SwmLJKsuBB9JatdVA7kewkvmdREjDlerZaoNBcJq8tq9wsq+pur1tKJ6RilqQCYWUpRMQEA9Egs5JJA6WNUj9Vi2Xtt4rcU0FFKVSgP5IWq+633evU363mdl7PQL1nWwHJtll0nHzyyYPW1LvJO8p7iTX1IIN8h8Qh0fit92Qzspr/6U/ji654mfNQR0dHx5awmo7uMS+6uIxS/Yo7aD+ABZGGK5Pldi0+q4C2ndN+3+pa2usN0ai/z3INL7KPQjIrOUSEpD0yBkWXVx3qPBY5RI5eEtk1rhU5QA6V3s352utgcTfh0+axMM8i6Lu5dse0QGDBIuGY1heuHdEULOd5JNmR7eHxj3/8EJGPsCFu3/ve9yYWx6Qqq0A+WFPtkxy6yDirZC2JuxOymra28oOWsLYW2HrcBHxBdK353le+8pXBgk4Cof0J6lLk4iAjmQz0ybTSptWqWgOi6u+jsbaYFXqpk05HR0fHTiCid1RqPLepSvwPyVt3qMjjeqTcqRHzi4pm34/YSxKfLASV5LD6sj6eccYZR6TY2g5ifRSIZgzT34bQTSNkxr/vheCGTLau7t30g+tAVi2YZBuY1W59wopM0sG9zTIqqI5++MEPfvCknLJgSdZFnyF3tMu+m5y4SLHryWKUlXkekjovWZ32nfYYbWaH7JN8ru6RoDnSE+8X3pzRWJ6EmLGsHmSQuOiHyB1qgv7WchopV/v+9pnniVV+aRNMR0dHx6IgyXsNWMnLMFYZn3lxrjvkfSQHYG2ruVc7WT36iKUzWlzaOy5ekfkpTLATkuheInyOiQgZ16effvoR5TXrMZ0XEVAWEhEUzd6S5N2SVcRM4CLSIWhs1rFiZWQdZfGl1RUg+MIXvnAoxECne/bZZw8WY/+T7kqf0bb6+8QTTxwIP3KKqCKtiL9ztn26aLJa/5cCFzXDg89uuOGGYbFoIaFaVEiYtstcMS2jw0GCzAXuZXXnp+pgrOQhorPc/r6vbxWiWPK00tHR0bE3YLHJyy9yAGS1vjDXHa5J+p0k0l/F/Kv7HdX6hsjQqgoME4SEaLZBZNtBJUi25z3veYOFSVDWNEJG02oBo3oV6x4XdA0y2y1cC8uuTAN0hooqTBtzKQbh+mmrRbRfc801QwT/rW51q+HZk5ZJVTFBZuQ5LJMstUqdssBy8apy5no9y9KUOVeI4yLI6jzIubRNW2V0sFC0GIjkQn8g5QcZ+vpOd7rTJDPLaGw1rRbSSLPq1lpWyQPou2nNlzuDdHR0dBwlEN3nRZn69CaYJNYWqLHOZVrVandN3/zmNydktePoopJV90B+TGNNUBFUicZOyGpNoySzQPTXiGBLyFgcTzrppMFCKSjJGD/zzDN3HF0+jfgJEtMGpFh7WrKa6HcEFeFAlrWVJEEUPO2qfLeVpCAoxnG8H/lcvlPBc7Fu1uISzrFdKUD9ex7dsDaz7AoMG41LmfqJPB/UiP0KFuRpbvwEurZyrGlk1RYt75KmiY6Ojo7lQ1QygmoSbFf0XpImyPvf//7Lfu/vGKw8dIEJVOk4+ggJGkcjDxHONafsTslq3NB1E6xlPEuUzspZLYwInfRVXOassA996EMH4nzuuecOgVm1rVudtxLluhASJOX5SaW4NmgNQWWFRCbTB6yrCUaKttff9IdXXnnlUEiAzOHlL3/5kJKKrjUZA6YFQU0LKJy1xTLapi2DfJZr1n+KTgjq8lzJZpC8p9KPdfycoLr3NY3cqAmSGjVVpGr+62z2l9ZsWfNCR0dHx8rBBJocfHlxRmOGrCKtt7nNbZY9D+wILF0sxRdddNGym3Kggex88YtfHCZiRLLm69ypjrgG92T7yU9+MoxXOUxrhLr/JfjqWc961hCMIuVXKv8IvmrTZW113pasIpV5XlQOS+BYjZqXwSApoXIMZDUZDhI9n/+lTG4ty6udyO6sRPzbIav12O1+2kV3Kr/tscceO1ikWU8R1Te+8Y3bvl/7EWQtz3zmMwfrclz8SRM4L1lNBSljUa7dZc4FHR0dHSsPGr5qYY27ajRe6c9Kx7PqEIAiQCXVbjar1NSxN0B+WAVN5AhbS/R2qp9syZeFF/c4N3yIXUuMZYuQukog4XXXXbfxmMc8ZlicPfaxjx3IQtJESfC/mb4zgWPc/RdeeOFAelORKkUdcm0s+56dtlCAz5LnNvtka6s6VYI86//zuv5bSyy4L0qZcu3f9a53nRQTEQiEfOu3jo1BM2zx7r1YKwTaErza5jqdtv36r//6YIk1Jpb31u/o6OhYQ4iUTknKNgI1ZT7PP//8Zc8X2waLEDmDSX5a8EnH3iEkysTMosn6uVdkFbipEQckcpr1FehDEVQWMZpmZDMLtec///kDMduqmheiKZjrDne4w+RZ8Zy84Q1vGP4f/aifvpsUTSGdMlXYqgQgJLRNtzaNrFbCul2yCqQPgrdc++/93u8NpEufeP6Rsb/5m7/Z0T3Zj3jkIx850fJXApoqcSlQMRpNT8yfzULG+3NpL/iOjo6O/QLVkKKhquL/WmteDfJ1gvKCJuJrr712MrGznh2Nqk0dPyeVrHOIENfptFrwi0CyAoiUR8RmkVXWrI9+9KMDQfXdb3/72wNBRdqMe58jbB/72MeGqP5U/LKx1qrN7v/It+/Lf2p8ieKPnCCaXKRQEFVNiu+YLLfgp+9JOyVjQa0cNU1j2mZBmGVdrbICYMF1bAn5ufaTjD8lmKVB6vhfsNBX71LNRz1qXPmjcTnj0biKWHKf5n8C4Zb2Qu/o6OjYz0jFqzZyNS9gsoB1AtewVDoIwbTk8Z2s7g1CoASMGDMi8feKrDqOUqosXW3qqKo1jV5TwJWFF52pgCsa529961tDztJEt9NqIqU2v4/GZMXfCLiAMURVOi6ygnq+ENUahIWU1mpU2pEALySaBXarUqdtYNk0sppUVl/60pc2Tj311IGI/+Iv/uJAxPWPfur4X7zrXe8axoJ7mTyn1WKeYKjR6EjtaVL91UApXpylvbg7Ojo6Dhq4rRLxW0u0jsbWJ//7xje+sex5Zm5o89ve9rbhd5amdSvDum6IhU8/cyub1C+55JKpAUqL6n+J51m1kj6pXYzUtEr+5oqXFWM0XoBJb/WOd7xjINXIp+IBH/jAB4ZxI/cpa6u/pb26+c1vPuRsPeWUUwaLMZJZA7VS/jXkUSaAVPRKyqlYVkNQY2Ftq0JVslrz09bvIMZXXHHFxktf+tKhnC2rMeKFWP/pn/7pcE0dPwd9sz6hHR01JU3ronzUkNP6e7Sq3pMyIiznLd3R0dHRMVLusb7Ap1lZ6RHXAfe73/0Ga7HUP0EnqXuHas2UuoqrVHlRnyNku0ldNQ3In2A66YOqC7y2p12Y+F0bEEmJ+UkVEtXPEv/kJz9547TTTtt47nOfOxBZRQ1G4+AaEdyf/OQnJ9dTMxAk0r+eEzG2SMr3BP3ViHz/Q3Bby2rb/vSp79HfqmIkFyfLr3ZZFCDSqml1/C+QeZbwpJYaNTlQo0GdFRiV96D+ZYXt6aU6Ojo6VghcZF7Q0WFVHWvKtK6LjpUcAGmdRmY6FotqDQSLGmPlq1/96o1yi+702K3b/Zd/+ZcHEonITSsEMS0aHtHMeEAYaVLpUCW4Z3mTrgkJtqky5TpUkwoBnUaAHQ9ZrZbWfN//BIBBLL3RtyYHa45TYT/BWrTXSrNqD3LqGeTiv+Md79ij9hvIS2tMWHykdGlIaZuA39hMhal2s4jxjuMhWOrLuKOjo6NjSwwvfRaySljz8vf5qkNlK9cgwKZX2tl7VEsgy5ZUSPe6170m1sd8Z7uIO7xKCRA5bvlzzjlnxyS4PUdc9UhsjcDPdSW7RD6vaajsw91cNas+p0utY89nvoeo1kVUvnP11VcPQVEkDohprH+CgHrBiyNhgUA/TPoQ3fG0ylCbbaPi6peDd8nv3I6Ojo6O7YJ1IdrVWoElQQZ+0oKtMn7nd35ncJO2uTS7JGDxqK5rFsyPfOQjwzjhVg+x2wmm6V6f+MQnDmNSkNQi2x+d6ax0VggtkpR0VCykcecL9EqQVSWWOY7rD1HNtXzve9/bOOusswYLMUkD0uV5k4HAeTqOBAkE67fFMjJvS6aDGvw0z8Y67X4s+z3b0dHR0bFLPOlJT5oUC6iuNZNE5AK0YasMwWEvetGLBnIBW+XV7NgdYglF4B796EcPli+ayhoZvx3EMhvr5t/93d9NIrFD/BZ1L6ucoT0mAk7vahyFeOe7PkNkkVUEKP/LT99HPgVVIfHItmCdFOUQIKVaVPbt+F/oF5KethpUmyO6/k8A3WhsaU3Ev4WAPKruw5Jfqx0dHR0diwbNnsmirXgVN5q/UyN9FXHxxRcPlhgBKm1t9E5WF49YQpE35O6EE04Ycn1ys87jym6t35VA3nDDDRu3u93tBomB4LlF38tZZNW4ETiWnKktkGYWVteM1EavSgagEpLMCCeeeOKEUCGqXNhyxHYcCWPkzne+84Rkjpoo/XnIqu9apNIds8Yu9QXa0dHR0XH0ILAjEbK0oMk9GIsrK+uqTr7aK0hFsEtcsJ2s7g1qQBRLKKKnYprxwt19zTXXDIQOwdssz2gCs8BPLv9jjjlmWHhcf/31M6s6LaL99VgJktLmoJZ1zd+uB6EV+CSllOC+4447bvA8qCsvbdbXv/71XbdvP8L4QC7b4M62QlRLVkdNqikW1Zvd7GbDWFnu27Kjo6OjY2lAFkbjCaJWckkJQvKApz3tacue+6aCG/DP//zPB+tXJ6t7h2qd5Pr3k4XxsssuG6xl0i798R//8UTr2UbXVyLIyoYEPuYxjxlKpiIlqpTV3Kp7RVZhFlFlYfV5KlapFvWUpzxlIOPayK0vqlzu1o4bg9yBlpzHJgvglMFtE/KPmtKm08iq1GPLeid2dHR0dKwgDh06NCGoyfUYaUDSxpi0Vw0sLnJnpjxnJ6t7g5ZAJhOAn6yqD3nIQ4ZxgrTe/e5333jGM56xcemll2787d/+7caPfvSjjR/+8IcbxthrX/vawXU+JiIbD3/4w4fk/chr5Bx7aVlFtFlJq3TB5z/96U+Hiljcy6pFyU98/PHHD5v0SdrXcWO8+c1v3rjDHe4wSDiShms01sMn8X7VxY9m5D/1k4zCQmB5b8GOjo6OjrUAl1squySQoWrGuN1XDaQMUgOx7HSyuneoVaRiibQhgD77zne+s/GKV7xi49hjjx1yYxovLN/Jf4nIILRSOLHUy3nJIl5TWM0qP7oIOI/o/mhRue/f/e53D6VLjXvtZDkVgCjdVMeNgeTLBEGvjIRmIVvznrYW05pxJGTW5rkVrMeavdy3XkdHR0fH2oGlpAZc+T3WERMOAstKtir42te+dkTp2EWXAO34OdoAqVhXE6DE/V83wVKf+tSnNj74wQ8O0fJXXnnlEKRUCw3UvKb5vG7TyOosAjsrGT8gRMjphz/84Y2zzz5744/+6I8GkioNmqpcf/VXf7W4jtpnoBWV8q7qTG1ZyNbFbf6fz2sREs/orW996577tKOjo6NjMYj1hGUsZLVuJh4u0lWBzAXqqScfaCese4dZcosqFZhnm7V/mzu3fq9139f/JSm/70QbayFDS5tcp6y6b3jDG4Za8B2zcdvb3nZCSGsg1KxUUzWrSBa0yCrrqTRnFgPLfqd1dHR0dOxDSM8zGqexiqsvP0fjKF0BMqsCbTr33HOH3ztZ3TtsRlZr5P92yWp7jGnpriJBqN+tIEU4/fTThyTz//f//t/JmPX3j3/84z3qkfUH67fStAIsufZHRUvaRvBvRlazj2wJy3x3dXR0dHQcMESXNiruvZBWFlakYBWIgOTgIpG5n6uVruPoYRbZ3Gzb7vHpXMHPa6+9dkgfxa3/G7/xGxNtrAAp5Vs7pkM6rlNPPXXjd3/3dyfEcxopRT494/lO3UZFDoDofve73+0EtaOjo6NjeWApiY41k1iIwWg8aYkMXja0Qy7MpLLqWA5mEdN5rKub4Sc/+cnGO97xjo0HPehBAzk1Ho1LZEnUfsdsfOELXxjKkVaL6Gi8AG2T8NdI/mpJrdvzn//8QXax3DdTR0dHR0dHwfnnnz+J6K4W1jrJqeCzTAiyYumRhgi6ZXW10KamShnXqjWt35XL9R/+4R823vSmN23c5S53megi6amlveoJ+TeHrAb03NGSJhCqBj5V8prPRk16KdZVKeLGpZo7Ojo6OjpWGwhrLFohq6Oxts2kJm3RMiExOY0iAlT1jp24Lh+IaqpU1WpRyWMqi4DfkVNlNY0nY0tKKWnTFA/omA1ZD0Tue0YTVDYaF/ZoLaSzUkxFk47c0qRbECz3jdPR0dHR0bEDcLuOxsFXdeLLhGdyXGalHxPumWeeOfxeCVLXsS4X7kM0p36XoxXBeuUrX7nxm7/5m4M7X+CeccXNLxdrx2xYkHHH6yv9hmDGQppnsbWiVmuqfhZUlef3l37pl3rkfkdHR0fH/gE3bKQA7UQY68yd7nSnpUziF1988TB5n3HGGUP5zLiaU5K14+gj+VeR049+9KMbj33sYwcrOOupMYQo9VKmW0Mf3f72tx/Gd3SnyXU6zWK62abfVexSJGHZ75OOjo6Ojo49gXKasYSNSpqb1Ab32e1ud7ulTOrnnXfe0K573/veQ0nQ6CKDLg1YPNrE/H4iQldcccXG61//+uFeyNiAZNGdnnzyyd21Pwe44uWIzTOVxWB16Y/G+tLq1g+JzfPpM3KKF77whRv/8R//0QlqR0dHR8fBwa/8yq9MLGRtEvFo55CWZYDFjqvzbW9721BukxuahW/R5TwPKkJQ9SmwZP/TP/3Txl/8xV8MhSNClGiZVYySlL9jc/znf/7noNlNVD6SOo2UzsqB6vueO98TEHmLW9xi4xOf+EQnpx0dHR0dBxssP9HIjYqFR3T+aDxpcjkuA0pqOn/yQSbyvJPVxYD+9JOf/OTG/e9//4kFz8bqzsLdsTWkXPPMGKfIZk0LVxP0j7YgqzZW63vc4x6dnHZ0dHR0dLRATEyy0c/VQI5scj0uA7SSJvFf+IVfGBKic4MeVOyGoJNTCIz63ve+NwSx3eY2txnKauaeS18m5VTH5vjWt741WE+NyaSVanXftXpcAqdqMOOopJfiPaDVXvIroKOjo6OjY/WBFHK913Q4laz6m4VzWTh06NAw2UvLc84558wkVpXQ7ScL7E6qewlMu+qqqzZe9apXbTzsYQ+bJORX9/2BD3zgxvXXX7+HLd4f0OdvfOMbB5f8aKw7tbDzPEwjqy05bTcei5e85CUb//3f/90JakdHR0dHx05AFlADPNqNu/Pv//7vl0YeBJkkf+eFF144VEeqQOZqPtD9IhtIYv6a5xSiOfU53akCC3S+j3jEI4aSuqNxvk6WU3rUjq3xgx/8YJC+1MpQoyKRafObTitnGqsqy6nsGh/4wAc6Oe3o6Ojo6FgUXve6100lqjaWIRYl9cmXiTvc4Q4DcUYGzjrrrI1/+7d/Gz5H5GhbBWTVtFfrTlaTd9bmuvyEn/70pxtf+tKXhpRSgnMSea4C0nOf+9wlt3p9gFBmkTYaJ9cfzdCYtpbU/G48ej5ofklWWP+X/Ch3dHR0dHTsX0gyngmbFTN6vFiZEkyybEQDSH95yimnDJ8hCfSZXK3TLKzrQFxDSGNF9Tcg4f/zP/+z8a53vWvjmGOOOSJnJze/dF8dW0NaKXKIEFQksy1DPC3naaL8ZdGwT9WgSvS/zGe2o6Ojo6PjQMKEzu0e3epoPDEn6pnO9d///d+XzT02Hve4xw2WLW2VI/bSSy+dlANdV0kACzFi+i//8i8bF1xwwcZxxx03lKRFllyr3/2vY2tcd911G3e+850HQh9yGv1psl/o160S8ydIikX/kY985LB4WPIj2tHR0dHR0WFSrpHMcZXGyuRzpTdXASyQ9IZIiDyyAove/e53D4SatTVENRbLVSGx2pCSpqyjb3/72zee8IQnbPzWb/3WxJp929vedtCkdmwNRP/8888fyKmFVsZpJZzp11hVRyVKv5LTkNf73Oc+A+ld4qPY0dHR0dHRMQtvfetbJ5rVTPYJIklkNM3kKoFbVlJ77VSBSeWlD33oQxvf+c53JsS1tboeTSCnXP2ItGpRF1100ZBSKkE7pA13u9vdBoLUsTX0J+vpqBDQmuN0mpU0Cfxrqqksxm5yk5sMBJX1erlPX0dHR0dHR8dcQKy4P0OmMsnXROiroGOdBqmabnazmw0kRhvpcGlcP/axjw0pnORvRWB3Slpby2x7jKSe4tYXFPX9739/QyCbQDHtQfSl5brlLW85WFU75oMcwaQfo2Lxzz2uRHXUlDRttanxEtz85jfv2tOOjo6Ojo51h3yrozE5yBaJAPIqGvpJT3rSsnnMpkBeR6XKEAss/a3iB6eddtrGJZdcMiSAR2ATeU8Da0vp12QaaEGKgJj+67/+68bnPve5gVCRI6jIRQMcK55+8lOwT8d8kLos/VYtpKNCShFVfTyt1Gn9Xj57+tOf3slpR0dHR0fHfsNnP/vZI2QAdQsZU+lnXYBgSv7Oupl8mbk+7nhklv7RNSGdt771rSebz0Tms9xyHZMcJHCHtY6lzzG4qK+++uplX+pa4b3vfe9g6Tz++OOHoLI20K+686cFRrVk1WeO1QOjOjo6Ojo6DgAEsSS3Z4JXat5Jv3PRrjP+//buHzSqJYrj+PBqQVARsVGCYBMMEvAPilE0WgkpBLG3UBBBEBsbG2uxsbARCwvBwjQSUsRCrBQRBEkjBNRCRBRBG5VrvsM9YXK569Pn07u7+X7gsptkTeJmA7+cmXOGk70eP35czc7O5mV7KnunTp3KlWMu9sFye/bs2ery5ct5TyyPffXqVdff+sDi+Tt37lxukItTosrmqFSHTz4W4bVtMH+MV+MPDQIvf5B0+xsjSZI6wf5Pql5to35YWucc9QcPHnSdgdSnnj9/nofy83rZvHlz3sd7+PDhXImOBrm2sJrqQMrM07Kyz1YLGtPYxtHxr4YkSeoX4+PjyypdseQajStcLJVLmJubW6qcRoMTWzCOHDmSr6NHj1bbt2/PlfsIoeUfQTT6xXYTtl2wj5q9wV3/HkiSpD726NGjZcdUxpJsNLtwnyqrVh4OamDf7sWLF/Oe0UOHDuU/XiJ0Up2nue3AgQP58AMeT1BNdRNcGVZT3UTFmK9OX/CSJGkwRcUs1UE15l1GlZVlWkY3aXjRwEQTHqdsxUlRvB727t1b7d+/v9q3b19eqqeaOjIykt/mY1RVt23bloNtnDIVlfqtW7e6tC9Jkv4fnHoVWwLaLvYZ0rCk4cCsWpqYmIzAWDAqpxMTE/k0MX7Wqa6Qbtq0qdq1a1cOqlyEVC72p/J49q4ymirC6a1bt/KIsK5fz5IkaQjRRU/jVZwKFOOcytFDVN40mOjYL/cnxylmhMxYzueW5XoapeKkM5b/d+7cmT9GlZX7TFQ4efJknq5A1b3r164kSVpBYu9hr2YZKrDqfzQwxbJ8OTKq2aHPxzgJijBK9ZTOfpqlosLK7djYWB73ReBlGkCnL1BJkiSG56eWZpky6Ny4caPrPKbCnTt3cuik2z72HXObUmq9YjA/P9/Vq1fnMVRUTlneP3HiRF7qp6FqamrKcCpJkvoPs1bLsFOGVW6jw1vdYNsGlVAa5KLizTYO9qHSnU81NA6BYKpDbPFIjdBavo+f58LCguFUkiQNhm/fvuUGmuZWgAhHXEwLePnyZdfZbejxHHMiF8EzQigd+FwxI3d0dDQfL0uFldC6e/fuas+ePXnMFPfp4Gc/aiqG9LPk/+zZMwOqJEkaXFTpqMzFeKJyL2Rc09PTXee5oUN1m1FRVLJ57uM5j+efi/dzTC6d/FRG+Tkt/siWBvdv2LAhv49gSjMV+05Pnz5dvXnzxoAqSZKGBw07cbpVnH4VF2GJi2Cl/+7evXt5e0UszfM8UzUlkPJ2/LFQ7h3mbY48pXoaj0v1tg2q4lS+meLw9u1bw6kkSRp+hClCUTTwxF7W8rSi+fn5rnPfQGDPKbNMCfrlFouychqVbIIrt/EHQoRYgipV1Rjkz79hvNSnT58Mp5IkaWXi1KIYBh9hNa5UB9YzZ850nQX7DhMUaH4iZEa4jOewvJqHMpQhNS6e/1j653O6rC9JklS4fv360rJzWWGNJWz2SdLos5K9ePEiD8/fuHHjsmX78nhb3m4Lq6nYBhCP423mntI8NTs7aziVJEn6kcXA+k+MTorKalkZTPU+y48fP3adG/8KxknRXU+wTI15pmXlOfWoqDYnLfAYOv8J/ZwW9f79ewOqJEnSr2KgfIy3KpevCVtRRSTEDRuW9eP/1zbDNPUIrD8KqnwetggwlL+7n6gkSdKQuXDhwtIhAnFUZ9l8Rahbv3591/nyt8zNzeU5pjFgv61imhohtTz9q9fjqJ5yapjzTiVJkv4w5noS5GK/ZbklgBBL0Hv69GnXufOn3L17tzp48GC1Zs2apfmlqdhr2muJPzXCanmoAvd5Hph3+u7dO8OpJEnS33bs2LEc7qLxKqqQEdgWH1Lt2LGj6yy6DPtqr169mgfpp7oqXHbit3XoN5fwY0sAV0xL4H2cGsUg/idPnhhOJUmS+sH9+/dzYGP/ZTPUpbrqSKBl5FIXbt++XW3ZsmWpQ785bL+siraF1V5H0DIzdd26ddXx48er169fG04lSZL6GVVFlr3bmorifX+jysrcV05ziq9ZVkbblvPL75fHxkEIqQ6zhPDo+ucxfG6mAXT7bEuSJOmXnT9/vrUSSfgj8K1atSrvC6US+bu+fv1a8fUYlM9YLYJyjIFqTivoFVabHfux5zY69ameUjn9/Pmz4VSSJGkYfPnyJQe/clJABEGqlrE9YGpq6qeD6cOHD6tLly5V4+Pj1dq1a5ftNS1HScUe07al/ObIKcJobFHgPh/nSNOZmRmDqSRJ0rBj9FOzyhr7QlMdGKm0smw/Pz9fLSwsVNPT0/kkqAikhEgal+LzNPea9qqO9rrKo0+pmhJ+qc5++PDBgCpJkrTSXLlyJVdTy8MDoskpKp2E16jCpjqgllXQciRUr7Ca6qpqGVjLr8PnZNQWx5fSENbdMyJJkqS+Q1AktBIey+pmBMz0g2ppNDj12m8ay/jl0afcZ0LBtWvXDKaSJEn6d3TQs+wf1dWy2pp+I6zyscnJybyVoOv/oyRJkgYc3fuLN8tOiooqayz/x5D9VGwFYLsAe1knJiaqmzdveiqUJEmS/hwasJhZung3B1PuM6t1ZGSkGhsbyyOjCKUcJtD19ypJkiRJkiRJkiRJkiRJkiRJkiRJkiRJkiRJkiRJkiRJkiRJkiRJkiRJkiRJkiRJkiRJkiRJkiRJkiRJkiRJkiRJkiRJkiRJkiRJkiRJkiRJkiRJkiRJkiRJkiRJkiRJkiRJkiRJ6hPfAZAoruhUzU7MAAAAAElFTkSuQmCC;" vertex="1" parent="1">
          <mxGeometry x="510" y="100" width="250" height="167.79" as="geometry" />
        </mxCell>
        <mxCell id="86YcsMJ1zAbwVgD-Ryo3-5" value="" style="shape=image;html=1;verticalAlign=top;verticalLabelPosition=bottom;labelBackgroundColor=#ffffff;imageAspect=0;aspect=fixed;image=https://cdn4.iconfinder.com/data/icons/essentials-72/24/044_-_Printer-128.png" vertex="1" parent="1">
          <mxGeometry x="400" y="240.00000000000003" width="168" height="168" as="geometry" />
        </mxCell>
        <mxCell id="86YcsMJ1zAbwVgD-Ryo3-6" value="" style="endArrow=none;html=1;rounded=0;entryX=0;entryY=0.25;entryDx=0;entryDy=0;" edge="1" parent="1" source="86YcsMJ1zAbwVgD-Ryo3-1" target="86YcsMJ1zAbwVgD-Ryo3-3">
          <mxGeometry width="50" height="50" relative="1" as="geometry">
            <mxPoint x="400" y="270" as="sourcePoint" />
            <mxPoint x="450" y="220" as="targetPoint" />
          </mxGeometry>
        </mxCell>
        <mxCell id="86YcsMJ1zAbwVgD-Ryo3-7" value="Tablet" style="text;html=1;strokeColor=none;fillColor=none;align=center;verticalAlign=middle;whiteSpace=wrap;rounded=0;" vertex="1" parent="1">
          <mxGeometry x="210" y="250" width="60" height="30" as="geometry" />
        </mxCell>
        <mxCell id="86YcsMJ1zAbwVgD-Ryo3-8" value="Electronic Scale" style="text;html=1;strokeColor=none;fillColor=none;align=center;verticalAlign=middle;whiteSpace=wrap;rounded=0;" vertex="1" parent="1">
          <mxGeometry x="660" y="260" width="60" height="30" as="geometry" />
        </mxCell>
        <mxCell id="86YcsMJ1zAbwVgD-Ryo3-9" value="RS-232 cable" style="text;html=1;strokeColor=none;fillColor=none;align=center;verticalAlign=middle;whiteSpace=wrap;rounded=0;" vertex="1" parent="1">
          <mxGeometry x="390" y="110" width="100" height="30" as="geometry" />
        </mxCell>
        <mxCell id="86YcsMJ1zAbwVgD-Ryo3-10" value="Label Printer" style="text;html=1;strokeColor=none;fillColor=none;align=center;verticalAlign=middle;whiteSpace=wrap;rounded=0;" vertex="1" parent="1">
          <mxGeometry x="420" y="408" width="140" height="30" as="geometry" />
        </mxCell>
      </root>
    </mxGraphModel>
  </diagram>
</mxfile>
